<svg width="14" height="15" viewBox="0 0 14 15" fill="none" xmlns="http://www.w3.org/2000/svg">
<path d="M11.375 2.25H10.0625V1.8125C10.0625 1.69647 10.0164 1.58519 9.93436 1.50314C9.85231 1.42109 9.74103 1.375 9.625 1.375C9.50897 1.375 9.39769 1.42109 9.31564 1.50314C9.23359 1.58519 9.1875 1.69647 9.1875 1.8125V2.25H4.8125V1.8125C4.8125 1.69647 4.76641 1.58519 4.68436 1.50314C4.60231 1.42109 4.49103 1.375 4.375 1.375C4.25897 1.375 4.14769 1.42109 4.06564 1.50314C3.98359 1.58519 3.9375 1.69647 3.9375 1.8125V2.25H2.625C2.39294 2.25 2.17038 2.34219 2.00628 2.50628C1.84219 2.67038 1.75 2.89294 1.75 3.125V11.875C1.75 12.1071 1.84219 12.3296 2.00628 12.4937C2.17038 12.6578 2.39294 12.75 2.625 12.75H11.375C11.6071 12.75 11.8296 12.6578 11.9937 12.4937C12.1578 12.3296 12.25 12.1071 12.25 11.875V3.125C12.25 2.89294 12.1578 2.67038 11.9937 2.50628C11.8296 2.34219 11.6071 2.25 11.375 2.25ZM3.9375 3.125V3.5625C3.9375 3.67853 3.98359 3.78981 4.06564 3.87186C4.14769 3.95391 4.25897 4 4.375 4C4.49103 4 4.60231 3.95391 4.68436 3.87186C4.76641 3.78981 4.8125 3.67853 4.8125 3.5625V3.125H9.1875V3.5625C9.1875 3.67853 9.23359 3.78981 9.31564 3.87186C9.39769 3.95391 9.50897 4 9.625 4C9.74103 4 9.85231 3.95391 9.93436 3.87186C10.0164 3.78981 10.0625 3.67853 10.0625 3.5625V3.125H11.375V4.875H2.625V3.125H3.9375ZM11.375 11.875H2.625V5.75H11.375V11.875ZM7.875 8.8125C7.875 8.98556 7.82368 9.15473 7.72754 9.29862C7.63139 9.44252 7.49473 9.55467 7.33485 9.62089C7.17496 9.68712 6.99903 9.70445 6.8293 9.67069C6.65956 9.63693 6.50365 9.55359 6.38128 9.43122C6.25891 9.30885 6.17557 9.15294 6.14181 8.9832C6.10805 8.81347 6.12538 8.63754 6.19161 8.47765C6.25783 8.31777 6.36998 8.18111 6.51388 8.08496C6.65777 7.98882 6.82694 7.9375 7 7.9375C7.23206 7.9375 7.45462 8.02969 7.61872 8.19378C7.78281 8.35788 7.875 8.58044 7.875 8.8125Z" fill="#C3C3C4"/>
</svg>
