<svg width="15" height="15" viewBox="0 0 15 15" fill="none" xmlns="http://www.w3.org/2000/svg">
<path d="M10.2353 6.04057C10.276 6.0812 10.3083 6.12945 10.3303 6.18256C10.3523 6.23567 10.3636 6.2926 10.3636 6.3501C10.3636 6.40759 10.3523 6.46452 10.3303 6.51763C10.3083 6.57075 10.276 6.619 10.2353 6.65963L7.17282 9.72213C7.13218 9.76281 7.08393 9.79508 7.03082 9.81709C6.97771 9.83911 6.92078 9.85044 6.86328 9.85044C6.80579 9.85044 6.74886 9.83911 6.69575 9.81709C6.64264 9.79508 6.59438 9.76281 6.55375 9.72213L5.24125 8.40963C5.15916 8.32754 5.11304 8.21619 5.11304 8.1001C5.11304 7.984 5.15916 7.87266 5.24125 7.79057C5.32335 7.70847 5.43469 7.66235 5.55078 7.66235C5.66688 7.66235 5.77822 7.70847 5.86032 7.79057L6.86328 8.79408L9.61625 6.04057C9.65688 5.99989 9.70514 5.96762 9.75825 5.9456C9.81136 5.92359 9.86829 5.91225 9.92578 5.91225C9.98328 5.91225 10.0402 5.92359 10.0933 5.9456C10.1464 5.96762 10.1947 5.99989 10.2353 6.04057ZM13.4258 7.6626C13.4258 8.78748 13.0922 9.8871 12.4673 10.8224C11.8423 11.7577 10.9541 12.4867 9.9148 12.9172C8.87554 13.3476 7.73197 13.4603 6.62871 13.2408C5.52544 13.0214 4.51203 12.4797 3.71661 11.6843C2.9212 10.8889 2.37952 9.87544 2.16007 8.77217C1.94061 7.66891 2.05325 6.52534 2.48372 5.48609C2.91419 4.44683 3.64317 3.55856 4.57848 2.93361C5.51378 2.30866 6.6134 1.9751 7.73828 1.9751C9.24621 1.97669 10.6919 2.57642 11.7582 3.64269C12.8245 4.70895 13.4242 6.15467 13.4258 7.6626ZM12.5508 7.6626C12.5508 6.71078 12.2685 5.78033 11.7397 4.98892C11.2109 4.1975 10.4593 3.58067 9.57995 3.21643C8.70058 2.85218 7.73295 2.75688 6.79941 2.94257C5.86588 3.12826 5.00837 3.58661 4.33533 4.25965C3.66229 4.93269 3.20395 5.79019 3.01825 6.72373C2.83256 7.65726 2.92787 8.62489 3.29211 9.50426C3.65636 10.3836 4.27319 11.1352 5.0646 11.664C5.85601 12.1928 6.78646 12.4751 7.73828 12.4751C9.01419 12.4737 10.2374 11.9662 11.1396 11.064C12.0418 10.1617 12.5493 8.93851 12.5508 7.6626Z" fill="#C3C3C4"/>
</svg>
