<svg width="130" height="22" viewBox="0 0 130 22" fill="none" xmlns="http://www.w3.org/2000/svg">
<g clip-path="url(#clip0_479_19649)">
<path d="M18.1401 1.30775C18.5905 0.826509 19.2023 0.556152 19.8394 0.556152C22.7055 0.556152 25.4065 0.556154 28.0665 0.556159C33.4163 0.556171 36.0953 7.46627 32.3124 11.5076L24.0723 20.3107C23.694 20.7148 23.0472 20.4286 23.0472 19.857V12.1036L23.9994 11.0863C24.756 10.278 24.2202 8.89597 23.1502 8.89597H11.0371L18.1401 1.30775Z" fill="#F26CF9"/>
<path d="M15.9432 19.6921C15.4928 20.1734 14.881 20.4437 14.244 20.4437C11.3778 20.4437 8.67679 20.4437 6.01686 20.4437C0.666957 20.4437 -2.01201 13.5336 1.77092 9.4922L10.0111 0.689185C10.3893 0.285046 11.0362 0.571274 11.0362 1.14281L11.0362 8.89615L10.0839 9.91355C9.32733 10.7219 9.86315 12.1039 10.9331 12.1039L23.0463 12.1038L15.9432 19.6921Z" fill="#F26CF9"/>
<path d="M81.8711 7.22021V17.2176H84.7301V7.22021H81.8711Z" fill="#1C2346"/>
<path d="M82.0713 5.55685C82.4092 5.9037 82.8221 6.07715 83.3109 6.07715C83.7993 6.07715 84.2097 5.9037 84.5413 5.55685C84.8792 5.20996 85.0482 4.78876 85.0482 4.29322C85.0482 3.7853 84.8792 3.36099 84.5413 3.02031C84.2097 2.67344 83.7993 2.5 83.3109 2.5C82.8221 2.5 82.4092 2.67344 82.0713 3.02031C81.7334 3.36099 81.5645 3.7853 81.5645 4.29322C81.5645 4.78876 81.7334 5.20996 82.0713 5.55685Z" fill="#1C2346"/>
<path fill-rule="evenodd" clip-rule="evenodd" d="M86.3438 21.1197V7.21998H89.0582V8.21413H89.0937C89.2646 8.04113 89.4487 7.88318 89.6463 7.74028C90.2856 7.28188 91.0213 7.05273 91.8539 7.05273C92.5838 7.05273 93.2805 7.24783 93.9441 7.63808C94.6136 8.02828 95.1565 8.60748 95.5728 9.37553C95.9886 10.1436 96.1906 11.1006 96.179 12.2465C96.1848 13.1137 96.067 13.8694 95.826 14.5136C95.5845 15.1516 95.2587 15.6812 94.8488 16.1024C94.4388 16.5236 93.9802 16.8395 93.4733 17.0501C92.9669 17.2607 92.4542 17.366 91.9352 17.366C91.1148 17.366 90.3791 17.1307 89.7276 16.6599C89.5636 16.5398 89.4082 16.4098 89.2617 16.2697H89.2028V21.1197H86.3438ZM91.2657 14.9131C91.6879 14.9069 92.0589 14.7924 92.3788 14.5694C92.6982 14.3464 92.9489 14.0305 93.1296 13.6217C93.3107 13.2128 93.3983 12.7359 93.392 12.1908C93.3983 11.6333 93.3078 11.1564 93.1208 10.7599C92.9397 10.3573 92.6836 10.0507 92.3515 9.84008C92.0199 9.62333 91.6397 9.51798 91.2117 9.52418C90.8076 9.51798 90.4453 9.62023 90.1259 9.83083C89.806 10.0414 89.5529 10.348 89.3659 10.7506C89.1789 11.1471 89.0854 11.6271 89.0854 12.1908C89.0854 12.7359 89.1789 13.2128 89.3659 13.6217C89.5587 14.0305 89.8182 14.3464 90.1439 14.5694C90.4697 14.7924 90.8436 14.9069 91.2657 14.9131Z" fill="#1C2346"/>
<path d="M98.9324 17.0594C99.4631 17.2638 100.018 17.366 100.597 17.366C101.261 17.366 101.867 17.2329 102.416 16.9665C102.971 16.7002 103.414 16.3285 103.746 15.8516C104.084 15.3684 104.252 14.814 104.252 14.1884C104.252 13.6929 104.15 13.2748 103.945 12.9341C103.746 12.5934 103.492 12.3147 103.185 12.0979C102.883 11.8811 102.572 11.7107 102.253 11.5869C101.933 11.4568 101.653 11.3577 101.411 11.2895C101.098 11.1966 100.796 11.1006 100.506 11.0015C100.217 10.9024 99.9787 10.7847 99.7917 10.6484C99.6048 10.5122 99.5113 10.3325 99.5113 10.1095C99.5113 9.88659 99.6048 9.70074 99.7917 9.55209C99.9787 9.40344 100.214 9.32909 100.498 9.32909C100.835 9.32909 101.113 9.42199 101.33 9.60784C101.553 9.79364 101.722 9.98569 101.837 10.1839L104.035 9.20829C103.758 8.56409 103.287 8.04689 102.624 7.65664C101.966 7.26644 101.224 7.07129 100.398 7.07129C99.7348 7.07129 99.1432 7.19829 98.6247 7.45224C98.112 7.70619 97.7049 8.05929 97.403 8.51144C97.1075 8.95744 96.96 9.47464 96.96 10.0631C96.96 10.6206 97.0866 11.0944 97.3398 11.4847C97.5934 11.8749 97.9221 12.197 98.3262 12.451C98.7362 12.6987 99.1705 12.8938 99.6291 13.0363C99.8283 13.0921 100.045 13.154 100.281 13.2221C100.522 13.2903 100.751 13.3708 100.968 13.4637C101.185 13.5566 101.363 13.6681 101.502 13.7982C101.64 13.9283 101.71 14.0831 101.71 14.2628C101.71 14.4052 101.662 14.5384 101.565 14.6623C101.475 14.7862 101.348 14.8884 101.185 14.9689C101.022 15.0432 100.832 15.0804 100.615 15.0804C100.205 15.0804 99.8492 14.9503 99.5473 14.6902C99.2459 14.43 99.02 14.1544 98.8691 13.8632L96.625 14.876C96.83 15.3777 97.1348 15.8175 97.5389 16.1953C97.943 16.567 98.4075 16.855 98.9324 17.0594Z" fill="#1C2346"/>
<path d="M115.873 17.2174V7.21999H118.596V8.49289H118.646C118.859 8.18874 119.099 7.93169 119.366 7.72169C119.908 7.28809 120.551 7.07129 121.293 7.07129C121.908 7.07129 122.43 7.22614 122.858 7.53589C123.188 7.76674 123.457 8.07644 123.666 8.46499H123.717C124.025 8.06149 124.399 7.74554 124.839 7.51729C125.412 7.21999 126.036 7.07129 126.712 7.07129C127.357 7.07129 127.889 7.18899 128.304 7.42439C128.721 7.65354 129.046 7.95709 129.282 8.33494C129.517 8.70659 129.683 9.11539 129.779 9.56139C129.876 10.0011 129.924 10.4285 129.924 10.8436V17.2174H127.047V11.2059C127.047 10.6608 126.935 10.2427 126.712 9.95159C126.495 9.65429 126.175 9.50564 125.753 9.50564C125.476 9.50564 125.228 9.57069 125.011 9.70074C124.8 9.82464 124.631 10.0135 124.505 10.2675C124.384 10.5215 124.324 10.8343 124.324 11.2059V17.2174H121.465V11.2059C121.465 10.6608 121.353 10.2427 121.13 9.95159C120.907 9.65429 120.584 9.50564 120.162 9.50564C119.752 9.50564 119.411 9.65119 119.139 9.94234C118.868 10.2272 118.732 10.6546 118.732 11.2245V17.2174H115.873Z" fill="#1C2346"/>
<path d="M108.877 17.3663C108.207 17.3663 107.598 17.2207 107.05 16.9296C106.5 16.6323 106.063 16.1987 105.737 15.6288C105.418 15.0528 105.258 14.3435 105.258 13.5011V7.22021H108.117V13.1109C108.117 13.6869 108.262 14.1267 108.551 14.4302C108.847 14.7276 109.206 14.8762 109.628 14.8762C109.942 14.8762 110.216 14.805 110.451 14.6625C110.692 14.5201 110.879 14.3188 111.012 14.0586C111.151 13.7922 111.22 13.4763 111.22 13.1109V7.22021H114.079V13.7148C114.079 14.0741 114.131 14.3342 114.233 14.4953C114.336 14.6563 114.544 14.7957 114.857 14.9134L113.844 17.3663C113.126 17.1743 112.602 16.9234 112.27 16.6137C112.103 16.4577 111.976 16.278 111.89 16.0748H111.818C111.565 16.3356 111.285 16.5679 110.976 16.7717C110.367 17.1681 109.667 17.3663 108.877 17.3663Z" fill="#1C2346"/>
<path fill-rule="evenodd" clip-rule="evenodd" d="M75.6813 17.366C74.746 17.366 73.8925 17.1462 73.1207 16.7064C72.3544 16.2666 71.7424 15.6595 71.2837 14.8853C70.8314 14.111 70.6055 13.219 70.6055 12.2094C70.6055 11.1997 70.8314 10.3078 71.2837 9.53349C71.7424 8.75924 72.3544 8.15529 73.1207 7.72169C73.8925 7.28809 74.746 7.07129 75.6813 7.07129C76.6342 7.07129 77.4935 7.28809 78.2599 7.72169C79.0258 8.15529 79.6319 8.75924 80.0784 9.53349C80.5307 10.3078 80.7567 11.1997 80.7567 12.2094C80.7567 13.219 80.5307 14.111 80.0784 14.8853C79.6319 15.6595 79.0228 16.2666 78.2506 16.7064C77.4848 17.1462 76.6283 17.366 75.6813 17.366ZM75.6813 14.8574C76.1273 14.8574 76.5285 14.7459 76.8844 14.5229C77.2403 14.2999 77.5208 13.9902 77.7258 13.5938C77.9307 13.1974 78.0335 12.7359 78.0335 12.2094C78.0335 11.7015 77.9342 11.2493 77.735 10.8528C77.5359 10.4564 77.2613 10.1467 76.9117 9.92374C76.5616 9.69454 76.1575 9.57994 75.6993 9.57994C75.247 9.57994 74.8395 9.69144 74.4777 9.91444C74.1218 10.1312 73.8413 10.4378 73.6364 10.8343C73.4314 11.2307 73.3287 11.6891 73.3287 12.2094C73.3287 12.7359 73.4314 13.1974 73.6364 13.5938C73.8472 13.9902 74.131 14.2999 74.487 14.5229C74.8429 14.7459 75.2407 14.8574 75.6813 14.8574Z" fill="#1C2346"/>
<path fill-rule="evenodd" clip-rule="evenodd" d="M62.1421 20.9618C62.8174 21.1662 63.5594 21.2684 64.3677 21.2684C65.1219 21.2684 65.8123 21.1693 66.4399 20.9711C67.067 20.7791 67.6099 20.4879 68.068 20.0977C68.5325 19.7075 68.8914 19.2243 69.145 18.6482C69.3982 18.0722 69.5248 17.4032 69.5248 16.6413V7.21066H66.9282V8.18621H66.8742C66.7013 8.01636 66.5144 7.86151 66.3128 7.72166C65.6857 7.28186 64.9529 7.06201 64.1145 7.06201C63.3905 7.06201 62.6937 7.25091 62.0243 7.62876C61.3548 8.00041 60.8061 8.55791 60.3776 9.30121C59.9555 10.0383 59.7441 10.9643 59.7441 12.0793C59.7441 12.9155 59.8678 13.6433 60.1152 14.2628C60.3625 14.8822 60.6911 15.3994 61.1016 15.8144C61.5179 16.2232 61.979 16.5298 62.4858 16.7342C62.9927 16.9325 63.502 17.0316 64.0147 17.0316C64.8414 17.0316 65.5771 16.7993 66.2227 16.3347C66.4267 16.1858 66.6176 16.0216 66.7943 15.8423H66.8377V16.8086C66.8377 17.2855 66.6872 17.6696 66.3853 17.9607C66.0839 18.258 65.7188 18.4748 65.2908 18.6111C64.8623 18.7474 64.449 18.8155 64.0512 18.8155C63.5867 18.8155 63.128 18.7381 62.6757 18.5832C62.2292 18.4345 61.8373 18.2549 61.4999 18.0443L60.5587 20.3486C60.9448 20.5592 61.4726 20.7636 62.1421 20.9618ZM65.8697 14.3092C65.5381 14.5322 65.155 14.6437 64.7207 14.6437C64.2922 14.6437 63.9153 14.5322 63.5896 14.3092C63.2639 14.08 63.0078 13.7672 62.8208 13.3708C62.6338 12.9682 62.5399 12.5067 62.5399 11.9864C62.5399 11.4661 62.6338 11.0139 62.8208 10.6299C63.0136 10.2458 63.279 9.95156 63.6169 9.74716C63.9548 9.53656 64.3375 9.43126 64.7659 9.43126C65.1939 9.43126 65.5713 9.53346 65.897 9.73786C66.2227 9.94231 66.4788 10.2365 66.6658 10.6206C66.8528 10.9984 66.9462 11.4537 66.9462 11.9864C66.9462 12.5129 66.8498 12.9775 66.657 13.3801C66.4637 13.7765 66.2013 14.0862 65.8697 14.3092Z" fill="#1C2346"/>
<path fill-rule="evenodd" clip-rule="evenodd" d="M53.943 17.366C53.0082 17.366 52.1547 17.1462 51.3825 16.7064C50.6166 16.2666 50.0041 15.6595 49.5459 14.8853C49.0936 14.111 48.8672 13.219 48.8672 12.2094C48.8672 11.1997 49.0936 10.3078 49.5459 9.53349C50.0041 8.75924 50.6166 8.15529 51.3825 7.72169C52.1547 7.28809 53.0082 7.07129 53.943 7.07129C54.8959 7.07129 55.7557 7.28809 56.5216 7.72169C57.2875 8.15529 57.8937 8.75924 58.3401 9.53349C58.7925 10.3078 59.0189 11.1997 59.0189 12.2094C59.0189 13.219 58.7925 14.111 58.3401 14.8853C57.8937 15.6595 57.2846 16.2666 56.5124 16.7064C55.7465 17.1462 54.89 17.366 53.943 17.366ZM53.943 14.8574C54.3895 14.8574 54.7902 14.7459 55.1461 14.5229C55.5021 14.2999 55.7825 13.9902 55.988 13.5938C56.193 13.1974 56.2952 12.7359 56.2952 12.2094C56.2952 11.7015 56.1959 11.2493 55.9967 10.8528C55.7976 10.4564 55.5235 10.1467 55.1734 9.92374C54.8238 9.69454 54.4192 9.57994 53.961 9.57994C53.5087 9.57994 53.1017 9.69144 52.7394 9.91444C52.3835 10.1312 52.1031 10.4378 51.8981 10.8343C51.6931 11.2307 51.5904 11.6891 51.5904 12.2094C51.5904 12.7359 51.6931 13.1974 51.8981 13.5938C52.1094 13.9902 52.3928 14.2999 52.7487 14.5229C53.1046 14.7459 53.5024 14.8574 53.943 14.8574Z" fill="#1C2346"/>
<path d="M41.1367 3.52197V17.2173H48.9089V14.5043H44.1044V3.52197H41.1367Z" fill="#1C2346"/>
</g>
<defs>
<clipPath id="clip0_479_19649">
<rect width="130" height="21" fill="white" transform="translate(0 0.5)"/>
</clipPath>
</defs>
</svg>
