<svg width="121" height="26" viewBox="0 0 121 26" fill="none" xmlns="http://www.w3.org/2000/svg">
<g clip-path="url(#clip0_479_19644)">
<path fill-rule="evenodd" clip-rule="evenodd" d="M12.8563 2.96855L14.5626 0L19.4 2.80605L17.6943 5.77395C17.3947 6.2946 17.8431 6.9277 18.4307 6.81395L21.6996 6.1802L22.7576 11.6902L19.4886 12.3233C14.2009 13.3477 10.1639 7.65375 12.8563 2.96855Z" fill="#F26CF9"/>
<path fill-rule="evenodd" clip-rule="evenodd" d="M9.90129 23.0313L8.195 25.9998L3.35694 23.1944L5.06324 20.2259C5.36282 19.7052 4.91441 19.0721 4.32624 19.1859L1.05794 19.819L0 14.3096L3.26894 13.6765C8.55671 12.6521 12.5931 18.3461 9.90129 23.0313Z" fill="#D3DAF9"/>
<path fill-rule="evenodd" clip-rule="evenodd" d="M10.0484 2.96855L8.34279 0L3.50473 2.80605L5.21103 5.77395C5.50997 6.2946 5.0622 6.9277 4.47403 6.81395L1.20508 6.1802L0.148438 11.6902L3.41673 12.3233C8.70514 13.3477 12.7421 7.65375 10.0491 2.96855H10.0484Z" fill="#1C2346"/>
<path fill-rule="evenodd" clip-rule="evenodd" d="M12.7147 23.0313L14.4197 25.9998L19.2578 23.1944L17.5515 20.2259C17.2525 19.7052 17.7003 19.0721 18.2885 19.1859L21.5568 19.819L22.6147 14.3096L19.3458 13.6765C14.058 12.6521 10.0217 18.3461 12.7134 23.0313H12.7147Z" fill="#5562A2"/>
<path d="M105.544 19.5995V14.0745C105.544 13.3088 105.719 12.6218 106.07 12.014C106.433 11.3939 106.947 10.9077 107.613 10.5548C108.279 10.2025 109.072 10.0263 109.991 10.0263C110.42 10.0221 110.848 10.0773 111.262 10.1901C111.649 10.2876 112 10.4274 112.315 10.6094C112.641 10.7797 112.92 10.9864 113.15 11.2295H113.186C113.433 10.9829 113.714 10.774 114.021 10.6094C114.358 10.423 114.718 10.282 115.092 10.1901C115.513 10.0781 115.946 10.023 116.381 10.0263C117.301 10.0263 118.093 10.2018 118.759 10.5548C119.424 10.9077 119.939 11.3933 120.302 12.014C120.666 12.6218 120.847 13.3082 120.847 14.0745V19.5995H118.015V14.1655C118.015 13.862 117.936 13.5883 117.779 13.3452C117.635 13.091 117.429 12.8776 117.18 12.7251C116.917 12.5648 116.615 12.4826 116.308 12.4879C115.981 12.4879 115.685 12.5672 115.419 12.7251C115.17 12.8774 114.964 13.0908 114.82 13.3452C114.673 13.5932 114.598 13.8771 114.602 14.1655V19.5995H111.789V14.1655C111.789 13.862 111.71 13.5883 111.552 13.3452C111.405 13.0873 111.192 12.8733 110.935 12.7251C110.673 12.5648 110.37 12.4826 110.063 12.4879C109.737 12.4879 109.44 12.5672 109.174 12.7251C108.926 12.8774 108.719 13.0908 108.575 13.3452C108.429 13.5933 108.353 13.8772 108.357 14.1655V19.5995H105.544ZM99.3896 19.8186C98.4339 19.8186 97.6044 19.6366 96.9029 19.2713C96.2132 18.8943 95.6807 18.3899 95.3054 17.7581C94.9301 17.1139 94.7424 16.4022 94.7424 15.6241V10.2447H97.5565V15.5513C97.5565 15.8796 97.6348 16.1838 97.792 16.4633C97.9492 16.7304 98.1615 16.9495 98.4274 17.1198C98.7057 17.2777 99.0208 17.357 99.3715 17.357C99.7105 17.357 100.013 17.2777 100.279 17.1198C100.558 16.9495 100.776 16.7304 100.933 16.4633C101.09 16.1838 101.169 15.8796 101.169 15.5513V10.2447H103.982V15.6241C103.982 16.4022 103.801 17.1139 103.438 17.7581C103.075 18.3899 102.549 18.8949 101.859 19.2713C101.181 19.6359 100.358 19.8186 99.3896 19.8186ZM85.6791 19.5995V17.357H90.1632C90.2842 17.357 90.3929 17.3323 90.4899 17.2836C90.5864 17.2231 90.6653 17.1438 90.7255 17.047C90.7848 16.9512 90.8162 16.8406 90.8162 16.7278C90.8162 16.615 90.7848 16.5045 90.7255 16.4087C90.6689 16.315 90.5873 16.2391 90.4899 16.1896C90.3919 16.1286 90.2785 16.097 90.1632 16.0986H88.5294C87.9237 16.0986 87.3731 16.0011 86.8774 15.8068C86.4065 15.6109 86.0027 15.2813 85.7153 14.8584C85.4371 14.421 85.2979 13.8555 85.2979 13.1626C85.2979 12.6276 85.4248 12.1414 85.6791 11.704C85.9436 11.2679 86.3115 10.9043 86.7499 10.6458C87.2075 10.379 87.7279 10.2405 88.2569 10.2447H92.7404V12.5061H88.6924C88.5316 12.5029 88.3758 12.5617 88.2569 12.6705C88.2039 12.7227 88.162 12.7851 88.1338 12.8541C88.1057 12.923 88.0919 12.9971 88.0932 13.0716C88.0932 13.2419 88.1482 13.3875 88.2569 13.509C88.3758 13.6179 88.5316 13.6767 88.6924 13.6735H90.29C90.9675 13.6735 91.5485 13.7768 92.0325 13.9829C92.5288 14.1779 92.91 14.4938 93.1765 14.9319C93.4548 15.3693 93.5939 15.9342 93.5939 16.6271C93.5939 17.1744 93.4548 17.6729 93.1765 18.1221C92.9125 18.5698 92.5369 18.9408 92.0869 19.1985C91.6391 19.4663 91.1312 19.5995 90.5624 19.5995H85.6791ZM79.5488 10.0263C80.3357 10.0263 81.0312 10.1537 81.6362 10.4092C82.2305 10.6368 82.7647 10.9986 83.1976 11.4667C83.6388 11.9254 83.979 12.4722 84.196 13.0716C84.4257 13.6793 84.5409 14.354 84.5409 15.0957C84.5409 16.0193 84.3474 16.8403 83.9598 17.5572C83.6018 18.2444 83.0617 18.8187 82.3991 19.2167C81.7333 19.6177 80.9588 19.8186 80.0755 19.8186C79.7002 19.8186 79.3431 19.7698 79.004 19.673C78.6829 19.5782 78.3773 19.4367 78.0968 19.2531C77.8325 19.0729 77.6045 18.844 77.4252 18.5784H77.3702V23.5574H74.5568V15.095C74.5568 14.0615 74.7625 13.1678 75.1741 12.4144C75.573 11.6729 76.1786 11.0644 76.9166 10.6633C77.6672 10.2382 78.5446 10.0257 79.5488 10.0257V10.0263ZM79.5488 12.4697C79.1134 12.4697 78.7322 12.5789 78.4055 12.7979C78.0904 13.0046 77.8484 13.2965 77.6788 13.6735C77.5099 14.0375 77.4252 14.4515 77.4252 14.913C77.4252 15.3752 77.5099 15.7886 77.6788 16.1532C77.8484 16.5179 78.0904 16.8097 78.4055 17.0288C78.7322 17.2355 79.1134 17.3388 79.5488 17.3388C79.9843 17.3388 80.3596 17.2348 80.6741 17.0288C80.9905 16.8082 81.2416 16.5056 81.4007 16.1532C81.5819 15.7886 81.6725 15.3752 81.6725 14.913C81.6725 14.4515 81.5819 14.0381 81.4007 13.6735C81.2312 13.2965 80.9892 13.004 80.6741 12.7979C80.3596 12.5789 79.9843 12.4697 79.5488 12.4697ZM70.281 19.5995V10.2447H73.1132V19.5995H70.281ZM71.6968 9.1872C71.249 9.1872 70.8621 9.0234 70.5353 8.69515C70.2085 8.3669 70.0448 7.97755 70.0448 7.52775C70.0448 7.07795 70.2085 6.68925 70.5353 6.361C70.8621 6.0204 71.249 5.8501 71.6968 5.8501C72.1445 5.8501 72.5321 6.0204 72.8589 6.361C73.1857 6.68925 73.3487 7.07795 73.3487 7.52775C73.3487 7.97755 73.1857 8.36625 72.8589 8.69515C72.5321 9.0234 72.1445 9.1872 71.6968 9.1872ZM64.1262 19.8186C63.1705 19.8186 62.3112 19.606 61.5483 19.1803C60.7999 18.7682 60.1737 18.1642 59.7333 17.4298C59.2978 16.6882 59.0798 15.8555 59.0798 14.9312C59.0798 13.9952 59.2978 13.1626 59.7333 12.4333C60.1737 11.6989 60.7999 11.0949 61.5483 10.6828C62.3112 10.2447 63.1705 10.0263 64.1262 10.0263C65.0825 10.0263 65.9354 10.2447 66.6859 10.6828C67.4317 11.0921 68.0527 11.6971 68.4828 12.4333C68.9306 13.1626 69.1545 13.9952 69.1545 14.9312C69.1545 15.8555 68.9306 16.6882 68.4828 17.4298C68.0527 18.166 67.4317 18.7711 66.6859 19.1803C65.9237 19.606 65.0702 19.8186 64.1262 19.8186ZM64.1262 17.357C64.5739 17.357 64.9615 17.2472 65.2883 17.0288C65.6151 16.81 65.8782 16.5078 66.0505 16.1532C66.2324 15.7886 66.3229 15.3752 66.3229 14.913C66.3229 14.4632 66.2324 14.0563 66.0505 13.691C65.8781 13.3367 65.6151 13.0348 65.2883 12.8161C64.9615 12.5971 64.5739 12.4879 64.1262 12.4879C63.6784 12.4879 63.285 12.5971 62.9466 12.8161C62.6196 13.035 62.3563 13.3371 62.1837 13.6917C61.9988 14.0719 61.9057 14.4906 61.9119 14.9137C61.9119 15.3752 62.0025 15.7886 62.1837 16.1532C62.3564 16.5078 62.6196 16.8099 62.9466 17.0288C63.285 17.2472 63.6784 17.357 64.1262 17.357ZM49.9355 23.3019V20.8761H54.5821C54.7639 20.8761 54.9153 20.8157 55.0363 20.6941C55.0953 20.6418 55.1421 20.577 55.1734 20.5045C55.2047 20.4319 55.2198 20.3533 55.2175 20.2742V18.2137H55.1631C54.9333 18.4823 54.6711 18.7211 54.3828 18.9248C54.1162 19.1198 53.8134 19.2654 53.4749 19.3629C53.1148 19.4646 52.7419 19.5136 52.3678 19.5085C51.5448 19.5085 50.8065 19.3135 50.1529 18.9248C49.5117 18.5238 49.0031 17.9706 48.6278 17.2654C48.2655 16.5608 48.0836 15.758 48.0836 14.8584C48.0836 13.9712 48.2713 13.1626 48.6466 12.4333C49.0335 11.704 49.5965 11.1203 50.3348 10.6828C51.0724 10.2447 51.9744 10.0263 53.0395 10.0263C54.056 10.0263 54.9334 10.2389 55.6717 10.6646C56.4131 11.0689 57.0192 11.6839 57.4142 12.4326C57.8258 13.1866 58.0315 14.0745 58.0315 15.0957V20.5661C58.0315 21.4046 57.7837 22.0676 57.2874 22.5538C56.8034 23.0523 56.1318 23.3013 55.2725 23.3013L49.9355 23.3019ZM53.0576 17.138C53.4931 17.138 53.8684 17.0405 54.1835 16.8461C54.4944 16.6433 54.745 16.3599 54.9088 16.0258C55.0809 15.6742 55.1681 15.2867 55.1631 14.8948C55.1631 14.4574 55.079 14.0563 54.9095 13.6917C54.7399 13.327 54.4979 13.041 54.1828 12.8343C53.8684 12.6153 53.4931 12.5061 53.0569 12.5061C52.6338 12.5061 52.2585 12.6094 51.9317 12.8161C51.6172 13.0228 51.3752 13.3023 51.2057 13.6546C51.0368 14.0076 50.9521 14.4021 50.9521 14.8402C50.9521 15.266 51.0362 15.6547 51.2057 16.0076C51.3752 16.3476 51.6172 16.6212 51.9324 16.8279C52.2585 17.0346 52.6338 17.138 53.0576 17.138ZM42.3643 19.8186C41.4086 19.8186 40.5493 19.606 39.7871 19.1803C39.0384 18.7683 38.4119 18.1643 37.9714 17.4298C37.5359 16.6882 37.3179 15.8555 37.3179 14.9312C37.3179 13.9952 37.5359 13.1626 37.9714 12.4333C38.4119 11.6988 39.0384 11.0948 39.7871 10.6828C40.5493 10.2447 41.4086 10.0263 42.3643 10.0263C43.3207 10.0263 44.1735 10.2447 44.9241 10.6828C45.6697 11.0921 46.2908 11.6971 46.7209 12.4333C47.1687 13.1626 47.3926 13.9952 47.3926 14.9312C47.3926 15.8555 47.1687 16.6882 46.7209 17.4298C46.2908 18.166 45.6697 18.771 44.9241 19.1803C44.1618 19.606 43.3084 19.8186 42.3643 19.8186ZM42.3643 17.357C42.8121 17.357 43.199 17.2472 43.5264 17.0288C43.8531 16.8098 44.1162 16.5077 44.2887 16.1532C44.4698 15.7886 44.5604 15.3752 44.5604 14.913C44.5604 14.4632 44.4698 14.0563 44.2887 13.691C44.1161 13.3368 43.8531 13.0349 43.5264 12.8161C43.1996 12.5971 42.8121 12.4879 42.3643 12.4879C41.9165 12.4879 41.5231 12.5971 41.1847 12.8161C40.8577 13.035 40.5944 13.3371 40.4218 13.6917C40.237 14.0719 40.1439 14.4906 40.1501 14.9137C40.1501 15.3752 40.2407 15.7886 40.4218 16.1532C40.5945 16.5078 40.8578 16.8099 41.1847 17.0288C41.5231 17.2472 41.9165 17.357 42.3643 17.357ZM33.3534 19.5995C32.5665 19.5995 31.8768 19.424 31.2841 19.0711C30.7076 18.7353 30.2312 18.2505 29.9045 17.6671C29.5778 17.0834 29.4141 16.4386 29.4141 15.734V6.83485H32.4637V15.9524C32.4637 16.2449 32.5672 16.4997 32.7723 16.7187C32.9781 16.9371 33.2317 17.047 33.5345 17.047H36.8928V19.5995H33.3534Z" fill="#1C2346"/>
</g>
<defs>
<clipPath id="clip0_479_19644">
<rect width="121" height="26" fill="white"/>
</clipPath>
</defs>
</svg>
