<svg width="93" height="22" viewBox="0 0 93 22" fill="none" xmlns="http://www.w3.org/2000/svg">
<g clip-path="url(#clip0_479_19650)">
<path fill-rule="evenodd" clip-rule="evenodd" d="M8.50692 15.2C7.81374 15.2 7.14896 14.9234 6.6588 14.4312C6.16865 13.9389 5.89329 13.2712 5.89329 12.575V0.5H0.666016V12.575C0.666016 16.9241 4.17665 20.45 8.50692 20.45H14.2569V15.2H8.50692ZM24.1887 5.75C23.5709 5.75 22.9592 5.87222 22.3884 6.10967C21.8176 6.34712 21.299 6.69516 20.8621 7.13392C20.4253 7.57268 20.0787 8.09356 19.8423 8.66682C19.6059 9.24008 19.4842 9.8545 19.4842 10.475C19.4842 11.0955 19.6059 11.7099 19.8423 12.2832C20.0787 12.8564 20.4253 13.3773 20.8621 13.8161C21.299 14.2548 21.8176 14.6029 22.3884 14.8403C22.9592 15.0778 23.5709 15.2 24.1887 15.2C25.4365 15.2 26.6331 14.7022 27.5154 13.8161C28.3976 12.93 28.8933 11.7281 28.8933 10.475C28.8933 9.22185 28.3976 8.02003 27.5154 7.13392C26.6331 6.24781 25.4365 5.75 24.1887 5.75ZM14.2569 10.475C14.2569 4.96617 18.7038 0.5 24.1887 0.5C29.6737 0.5 34.1206 4.96617 34.1206 10.475C34.1206 15.9838 29.6737 20.45 24.1887 20.45C18.7038 20.45 14.2569 15.9838 14.2569 10.475ZM80.6433 5.75C79.3956 5.75 78.1989 6.24781 77.3167 7.13392C76.4344 8.02003 75.9387 9.22185 75.9387 10.475C75.9387 11.7281 76.4344 12.93 77.3167 13.8161C78.1989 14.7022 79.3956 15.2 80.6433 15.2C81.891 15.2 83.0876 14.7022 83.9699 13.8161C84.8522 12.93 85.3478 11.7281 85.3478 10.475C85.3478 9.22185 84.8522 8.02003 83.9699 7.13392C83.0876 6.24781 81.891 5.75 80.6433 5.75ZM70.7115 10.475C70.7115 4.96617 75.1583 0.5 80.6433 0.5C86.1283 0.5 90.5751 4.96617 90.5751 10.475C90.5751 15.9838 86.1283 20.45 80.6433 20.45C75.1583 20.45 70.7115 15.9838 70.7115 10.475ZM45.0978 0.5C39.6129 0.5 35.166 4.96617 35.166 10.475C35.166 15.9838 39.6129 20.45 45.0978 20.45H59.7342C60.7634 20.45 61.7561 20.2925 62.6897 20.0006L65.4842 21.5L68.4993 15.8279C69.2652 14.384 69.6659 12.7731 69.666 11.137V10.475C69.666 4.96617 65.2192 0.5 59.7342 0.5H45.0978ZM64.4387 10.475C64.4387 9.22185 63.9431 8.02003 63.0608 7.13392C62.1785 6.24781 60.9819 5.75 59.7342 5.75H45.0978C44.48 5.75 43.8683 5.87222 43.2975 6.10967C42.7267 6.34712 42.2081 6.69516 41.7712 7.13392C41.3344 7.57268 40.9878 8.09356 40.7514 8.66682C40.515 9.24008 40.3933 9.8545 40.3933 10.475C40.3933 11.0955 40.515 11.7099 40.7514 12.2832C40.9878 12.8564 41.3344 13.3773 41.7712 13.8161C42.2081 14.2548 42.7267 14.6029 43.2975 14.8403C43.8683 15.0778 44.48 15.2 45.0978 15.2H59.7342C60.9756 15.2 62.1667 14.7073 63.0479 13.8291C63.9292 12.9509 64.4291 11.7585 64.4387 10.5117V10.475Z" fill="#37437D"/>
<path d="M92.6664 1.8125C92.6664 2.1606 92.5287 2.49444 92.2836 2.74058C92.0385 2.98672 91.7061 3.125 91.3596 3.125C91.013 3.125 90.6806 2.98672 90.4355 2.74058C90.1904 2.49444 90.0527 2.1606 90.0527 1.8125C90.0527 1.4644 90.1904 1.13056 90.4355 0.884422C90.6806 0.638281 91.013 0.5 91.3596 0.5C91.7061 0.5 92.0385 0.638281 92.2836 0.884422C92.5287 1.13056 92.6664 1.4644 92.6664 1.8125Z" fill="#37437D"/>
</g>
<defs>
<clipPath id="clip0_479_19650">
<rect width="92" height="21" fill="white" transform="translate(0.666016 0.5)"/>
</clipPath>
</defs>
</svg>
