<svg width="115" height="22" viewBox="0 0 115 22" fill="none" xmlns="http://www.w3.org/2000/svg">
<g opacity="0.7" clip-path="url(#clip0_479_19651)">
<path d="M10.6969 21.5C16.4207 21.5 21.0605 16.7991 21.0605 11V3.65C21.0605 2.81457 20.733 2.01335 20.1499 1.42261C19.5668 0.831874 18.776 0.5 17.9515 0.5L11.2151 0.5V5.10635C11.2151 6.1574 11.2783 7.24625 11.8224 8.14085C12.2119 8.78198 12.733 9.33073 13.3502 9.74987C13.9675 10.169 14.6666 10.4487 15.3999 10.57L15.5984 10.6026C15.6802 10.6309 15.7512 10.6845 15.8015 10.7557C15.8518 10.827 15.8789 10.9124 15.8789 11C15.8789 11.0876 15.8518 11.173 15.8015 11.2443C15.7512 11.3155 15.6802 11.3691 15.5984 11.3974L15.3999 11.43C14.3284 11.6073 13.3389 12.1212 12.5712 12.899C11.8035 13.6768 11.2963 14.6793 11.1213 15.7649L11.0892 15.966C11.0612 16.0489 11.0083 16.1208 10.938 16.1718C10.8677 16.2227 10.7834 16.2501 10.6969 16.2501C10.6104 16.2501 10.5261 16.2227 10.4558 16.1718C10.3855 16.1208 10.3326 16.0489 10.3046 15.966L10.2725 15.7649C10.1527 15.0219 9.87665 14.3137 9.46297 13.6883C9.04928 13.0629 8.50767 12.535 7.87489 12.1403C6.9919 11.589 5.91719 11.525 4.87979 11.525H0.345703C0.616712 17.08 5.14718 21.5 10.6969 21.5Z" fill="#D3DAF9"/>
<path d="M0.333984 10.475H4.88051C5.91791 10.475 6.99262 10.411 7.8756 9.8597C8.56583 9.42883 9.14686 8.84016 9.57213 8.14085C10.1162 7.24625 10.1794 6.1574 10.1794 5.10635V0.5H3.44308C2.61849 0.5 1.82768 0.831874 1.24462 1.42261C0.661548 2.01335 0.333984 2.81457 0.333984 3.65L0.333984 10.475ZM24.4061 1.55C24.4061 1.82848 24.2969 2.09555 24.1026 2.29246C23.9082 2.48938 23.6446 2.6 23.3698 2.6C23.0949 2.6 22.8313 2.48938 22.6369 2.29246C22.4426 2.09555 22.3334 1.82848 22.3334 1.55C22.3334 1.27152 22.4426 1.00445 22.6369 0.807538C22.8313 0.610625 23.0949 0.5 23.3698 0.5C23.6446 0.5 23.9082 0.610625 24.1026 0.807538C24.2969 1.00445 24.4061 1.27152 24.4061 1.55ZM110.039 6.8546C112.936 6.8546 114.334 8.90473 114.334 11.2793V15.7392H111.302V11.8085C111.302 10.7323 110.914 9.84395 109.803 9.84395C108.691 9.84395 108.321 10.7323 108.321 11.8085V15.7387H105.289V11.8085C105.289 10.7323 104.919 9.84395 103.807 9.84395C102.695 9.84395 102.307 10.7323 102.307 11.8085V15.7387H99.2761V11.2788C99.2761 8.9042 100.674 6.85408 103.571 6.85408C105.154 6.85408 106.3 7.48618 106.822 8.5283C107.377 7.48618 108.59 6.85355 110.039 6.85355V6.8546ZM93.828 13.0055C94.8047 13.0055 95.226 12.0999 95.226 11.0231V7.19585H98.2574V11.399C98.2574 13.9106 96.8091 15.9954 93.828 15.9954C90.8464 15.9954 89.398 13.9111 89.398 11.399V7.19585H92.4299V11.0231C92.4299 12.0994 92.8507 13.0055 93.828 13.0055ZM84.9401 16.0122C83.0368 16.0122 81.8072 15.346 81.0828 14.0476L83.2726 12.8002C83.5757 13.3468 84.0302 13.6203 84.7883 13.6203C85.4117 13.6203 85.6977 13.3982 85.6977 13.1247C85.6977 12.0826 81.2512 13.142 81.2512 9.82768C81.2512 8.22118 82.5985 6.92285 84.8893 6.92285C86.8937 6.92285 87.9886 7.91353 88.4772 8.8706L86.2874 10.1348C86.1024 9.6224 85.5293 9.31475 84.9567 9.31475C84.5188 9.31475 84.2831 9.5027 84.2831 9.7589C84.2831 10.8184 88.7296 9.84448 88.7296 13.0564C88.7296 14.8504 86.9947 16.0122 84.9401 16.0122ZM74.3474 19.6688H71.3156V11.4505C71.3156 8.83595 73.2525 6.93965 75.9476 6.93965C78.5753 6.93965 80.5796 8.97298 80.5796 11.4505C80.5796 14.1841 78.794 15.9954 76.116 15.9954C75.4926 15.9954 74.8698 15.8074 74.3474 15.5166V19.6688ZM75.9476 13.1079C76.9078 13.1079 77.5477 12.3561 77.5477 11.4673C77.5477 10.5622 76.9078 9.82715 75.9476 9.82715C74.9874 9.82715 74.3474 10.5622 74.3474 11.4678C74.3474 12.3561 74.9874 13.1079 75.9476 13.1079ZM68.2785 6.29075C67.2846 6.29075 66.4597 5.45338 66.4597 4.44538C66.4597 3.43738 67.2846 2.6 68.2785 2.6C69.2724 2.6 70.0978 3.43738 70.0978 4.44538C70.0978 5.45338 69.2724 6.29075 68.2785 6.29075ZM66.7628 7.19585H69.7947V15.7392H66.7628V7.19585ZM60.9457 15.9954C58.318 15.9954 56.3137 13.9453 56.3137 11.4505C56.3137 8.97298 58.318 6.92285 60.9457 6.92285C63.5734 6.92285 65.5777 8.97298 65.5777 11.4505C65.5777 13.9453 63.5734 15.9954 60.9457 15.9954ZM60.9457 13.1079C61.9059 13.1079 62.5459 12.3561 62.5459 11.4673C62.5459 10.5622 61.9059 9.81035 60.9457 9.81035C59.9855 9.81035 59.3456 10.5622 59.3456 11.4673C59.3456 12.3561 59.9855 13.1079 60.9457 13.1079ZM50.5888 19.925C48.5005 19.925 46.9843 18.9853 46.2097 17.3105L48.7192 15.9439C48.9887 16.5251 49.4939 17.1231 50.538 17.1231C51.6335 17.1231 52.3574 16.4222 52.4418 15.1921C52.0376 15.5512 51.3972 15.8242 50.4375 15.8242C48.0958 15.8242 46.2091 13.9962 46.2091 11.4331C46.2091 8.95618 48.214 6.93965 50.8417 6.93965C53.5367 6.93965 55.4737 8.83648 55.4737 11.4505V14.8336C55.4737 17.909 53.3678 19.925 50.5888 19.925ZM50.7909 12.9373C51.7003 12.9373 52.391 12.3046 52.391 11.3649C52.391 10.4425 51.7008 9.82715 50.7909 9.82715C49.8981 9.82715 49.1908 10.4425 49.1908 11.3654C49.1908 12.3052 49.8981 12.9367 50.7909 12.9367V12.9373ZM41.0667 15.9954C38.439 15.9954 36.4342 13.9453 36.4342 11.4505C36.4342 8.97298 38.439 6.92285 41.0667 6.92285C43.6939 6.92285 45.6987 8.97298 45.6987 11.4505C45.6987 13.9453 43.6944 15.9954 41.0667 15.9954ZM41.0667 13.1079C42.0269 13.1079 42.6668 12.3561 42.6668 11.4673C42.6668 10.5622 42.0269 9.81035 41.0667 9.81035C40.1065 9.81035 39.4666 10.5622 39.4666 11.4673C39.4666 12.3561 40.1065 13.1079 41.0667 13.1079ZM30.9134 4.2065V12.8344H35.9331V15.7392H30.4922C28.5723 15.7392 27.7976 14.7139 27.7976 13.0906V4.2065H30.9134Z" fill="#1C2346"/>
</g>
<defs>
<clipPath id="clip0_479_19651">
<rect width="114" height="21" fill="white" transform="translate(0.333984 0.5)"/>
</clipPath>
</defs>
</svg>
