<svg width="110" height="30" viewBox="0 0 110 30" fill="none" xmlns="http://www.w3.org/2000/svg">
<g clip-path="url(#clip0_479_19647)">
<path fill-rule="evenodd" clip-rule="evenodd" d="M0.228516 3.30228L2.15156 2.44768C9.3005 -0.729303 17.4213 -0.729303 24.5702 2.44768L26.4933 3.30228V16.5083C26.4933 23.9128 20.6137 29.9155 13.3609 29.9155C6.10808 29.9155 0.228516 23.9128 0.228516 16.5083V3.30228ZM4.38927 6.09512V11.8743C4.83299 11.7647 5.26872 11.6198 5.69242 11.4407C6.76514 10.9871 7.73982 10.3221 8.56084 9.48395C9.38187 8.64576 10.0331 7.65068 10.4775 6.55553C10.7552 5.8711 10.9487 5.15593 11.0547 4.42643C8.78516 4.65074 6.53963 5.20699 4.38927 6.09512ZM4.39002 16.6292C4.83348 16.7388 5.26896 16.8836 5.69242 17.0627C6.76514 17.5163 7.73982 18.1812 8.56084 19.0194C9.38187 19.8576 10.0331 20.8526 10.4775 21.9478C10.92 23.0385 11.1486 24.2071 11.1505 25.3875C7.30112 24.3918 4.44357 20.8556 4.39002 16.6292ZM13.2309 18.1996C12.7333 17.4132 12.1545 16.6809 11.5029 16.0157C10.8514 15.3506 10.1341 14.7596 9.36379 14.2517C10.1341 13.7437 10.8514 13.1528 11.5029 12.4876C12.1545 11.8224 12.7333 11.0901 13.2309 10.3037C13.7284 11.0901 14.3073 11.8224 14.9588 12.4876C15.6103 13.1528 16.3277 13.7437 17.098 14.2517C16.3277 14.7596 15.6103 15.3506 14.9588 16.0157C14.3073 16.6809 13.7284 17.4132 13.2309 18.1996ZM15.3113 25.4506C19.3098 24.5456 22.3047 20.9168 22.3323 16.569C21.7988 16.6836 21.2755 16.8486 20.7693 17.0627C19.6966 17.5163 18.7219 18.1812 17.9009 19.0194C17.0799 19.8576 16.4286 20.8526 15.9843 21.9478C15.5399 23.0429 15.3113 24.2167 15.3113 25.4021V25.4506ZM20.7693 11.4407C21.2755 11.6547 21.7989 11.8198 22.3325 11.9344V6.09512C20.099 5.1726 17.7627 4.60818 15.4035 4.40187C15.5088 5.1399 15.7035 5.86343 15.9843 6.55553C16.4286 7.65068 17.0799 8.64576 17.9009 9.48395C18.7219 10.3221 19.6966 10.9871 20.7693 11.4407Z" fill="#37437D"/>
<path fill-rule="evenodd" clip-rule="evenodd" d="M57.7367 27.2807C57.1126 27.2807 56.5509 27.1278 56.0516 26.8219C55.5523 26.5075 55.1571 26.0827 54.8658 25.5475C54.5829 25.0038 54.4414 24.3921 54.4414 23.7125C54.4414 23.0243 54.5829 22.4126 54.8658 21.8774C55.1571 21.3422 55.5482 20.9217 56.0391 20.6158C56.5384 20.3015 57.1043 20.1443 57.7367 20.1443C58.3109 20.1443 58.8227 20.2718 59.272 20.5266C59.64 20.7353 59.9437 21.0037 60.1833 21.3319V17.481H61.1194V27.1278H60.1833V26.0147C59.9591 26.3765 59.6595 26.6669 59.2845 26.8857C58.8268 27.149 58.3109 27.2807 57.7367 27.2807ZM57.7867 26.3249C58.236 26.3249 58.6396 26.2102 58.9974 25.9808C59.3636 25.7514 59.6507 25.4413 59.8587 25.0505C60.0751 24.6512 60.1833 24.2052 60.1833 23.7125C60.1833 23.2197 60.0751 22.7779 59.8587 22.3872C59.6507 21.9879 59.3636 21.6735 58.9974 21.4441C58.6396 21.2148 58.236 21.1001 57.7867 21.1001C57.3456 21.1001 56.9462 21.2148 56.5884 21.4441C56.2305 21.6735 55.9476 21.9836 55.7396 22.3744C55.5398 22.7652 55.44 23.2112 55.44 23.7125C55.44 24.2052 55.5398 24.6512 55.7396 25.0505C55.9476 25.4413 56.2264 25.7514 56.5759 25.9808C56.9337 26.2102 57.3373 26.3249 57.7867 26.3249Z" fill="#C3C3C4"/>
<path fill-rule="evenodd" clip-rule="evenodd" d="M64.0153 26.8222C64.5229 27.128 65.0887 27.2809 65.7129 27.2809C66.1705 27.2809 66.5866 27.2045 66.9611 27.0515C67.3439 26.8901 67.6726 26.682 67.9472 26.427C68.2218 26.1636 68.4257 25.879 68.5588 25.5732L67.76 25.1399C67.5519 25.4967 67.2815 25.7941 66.9486 26.032C66.6157 26.2698 66.2038 26.3888 65.7129 26.3888C65.2885 26.3888 64.889 26.2783 64.5146 26.0575C64.1484 25.8366 63.8572 25.5265 63.6408 25.1272C63.4728 24.7977 63.3862 24.4239 63.381 24.0058H68.6462C68.6628 23.8953 68.6753 23.7891 68.6836 23.6872C68.692 23.5767 68.6961 23.479 68.6961 23.3941C68.6961 22.9863 68.6254 22.5913 68.4839 22.209C68.3425 21.8182 68.1386 21.4698 67.8723 21.164C67.606 20.8497 67.2815 20.6033 66.8987 20.4249C66.5242 20.238 66.0957 20.1445 65.613 20.1445C65.0055 20.1445 64.4563 20.2975 63.9653 20.6033C63.4827 20.9091 63.0999 21.3297 62.817 21.8649C62.534 22.3916 62.3926 22.999 62.3926 23.6872C62.3926 24.3753 62.5382 24.9913 62.8295 25.535C63.1207 26.0787 63.516 26.5077 64.0153 26.8222ZM63.3958 23.1137C63.4268 22.8125 63.5043 22.5406 63.6283 22.2982C63.828 21.8989 64.1026 21.5888 64.4522 21.3679C64.81 21.147 65.1969 21.0366 65.613 21.0366C66.0291 21.0366 66.4035 21.147 66.7364 21.3679C67.0693 21.5803 67.3231 21.8734 67.4978 22.2472C67.6294 22.5097 67.6942 22.7986 67.6926 23.1137H63.3958Z" fill="#C3C3C4"/>
<path d="M69.9727 20.2975H70.9088V21.1295C71.0794 20.8607 71.2999 20.6428 71.5704 20.4759C71.9365 20.255 72.336 20.1445 72.7687 20.1445C73.2846 20.1445 73.7506 20.2932 74.1667 20.5905C74.4884 20.8204 74.738 21.1035 74.9154 21.44C75.0867 21.0699 75.3322 20.7783 75.6521 20.5651C76.0682 20.2847 76.5258 20.1445 77.0251 20.1445C77.4745 20.1445 77.8864 20.255 78.2609 20.4759C78.6437 20.6967 78.9474 21.0026 79.1721 21.3934C79.4051 21.7757 79.5216 22.209 79.5216 22.6932V27.128H78.5854V23.0628C78.5854 22.6465 78.5105 22.2939 78.3607 22.0051C78.2193 21.7162 78.0237 21.4953 77.7741 21.3424C77.5244 21.181 77.2373 21.1003 76.9128 21.1003C76.5966 21.1003 76.3095 21.181 76.0515 21.3424C75.7936 21.4953 75.5897 21.7205 75.4399 22.0178C75.2901 22.3067 75.2152 22.655 75.2152 23.0628V27.128H74.279V23.0628C74.279 22.6465 74.2041 22.2939 74.0544 22.0051C73.9129 21.7162 73.7173 21.4953 73.4677 21.3424C73.218 21.181 72.931 21.1003 72.6064 21.1003C72.2819 21.1003 71.9906 21.181 71.7327 21.3424C71.483 21.4953 71.2833 21.7205 71.1335 22.0178C70.9837 22.3067 70.9088 22.655 70.9088 23.0628V27.128H69.9727V20.2975Z" fill="#C3C3C4"/>
<path d="M80.9514 29.9315C80.8182 29.9315 80.6809 29.9187 80.5395 29.8932C80.4063 29.8762 80.2732 29.8422 80.14 29.7913V28.8992C80.2232 28.9077 80.3273 28.9205 80.4521 28.9375C80.5852 28.963 80.7184 28.9757 80.8515 28.9757C81.2593 28.9757 81.5713 28.8865 81.7877 28.7081C82.004 28.5382 82.2162 28.2069 82.4243 27.7141L82.6661 27.133L79.9902 20.2974H81.0013L83.1917 25.9357L85.3701 20.2974H86.4061L83.348 27.9945C83.2148 28.3258 83.0442 28.6401 82.8362 28.9375C82.6365 29.2348 82.3827 29.4727 82.0748 29.6511C81.7669 29.838 81.3924 29.9315 80.9514 29.9315Z" fill="#C3C3C4"/>
<path fill-rule="evenodd" clip-rule="evenodd" d="M48.747 27.0388C49.0799 27.2002 49.4585 27.2809 49.8832 27.2809C50.2743 27.2809 50.6321 27.2215 50.9564 27.1025C51.2893 26.9751 51.5764 26.8094 51.8177 26.6055C51.9849 26.4632 52.1222 26.3115 52.2296 26.1503V27.128H53.166V22.4383C53.166 21.9881 53.0578 21.593 52.8412 21.2532C52.6332 20.9049 52.3378 20.633 51.9552 20.4376C51.5805 20.2422 51.1481 20.1445 50.6568 20.1445C50.2826 20.1445 49.9204 20.2167 49.5709 20.3612C49.2214 20.4971 48.9093 20.684 48.6347 20.9219C48.3687 21.1598 48.1729 21.4231 48.048 21.712L48.8971 22.1835C49.0466 21.8521 49.2755 21.5845 49.5836 21.3806C49.8913 21.1682 50.2491 21.0621 50.6568 21.0621C51.1228 21.0621 51.5017 21.1895 51.793 21.4444C52.084 21.6992 52.2296 22.0305 52.2296 22.4383V22.7909L49.808 23.2029C49.3171 23.2879 48.9135 23.4323 48.5975 23.6362C48.281 23.8401 48.048 24.0907 47.8983 24.3881C47.7487 24.6769 47.6738 24.9998 47.6738 25.3566C47.6738 25.7304 47.7693 26.0617 47.9607 26.3505C48.1523 26.6395 48.4142 26.8689 48.747 27.0388ZM52.2296 23.6575V24.1714C52.2296 24.5877 52.1342 24.9658 51.9425 25.3056C51.7511 25.6454 51.4848 25.9173 51.1439 26.1212C50.8027 26.3166 50.4033 26.4143 49.9453 26.4143C49.5709 26.4143 49.263 26.3081 49.0217 26.0957C48.7889 25.8833 48.6724 25.6242 48.6724 25.3183C48.6724 25.004 48.7764 24.7321 48.9842 24.5028C49.2006 24.2734 49.5501 24.1162 50.0327 24.0313L52.2296 23.6575Z" fill="#C3C3C4"/>
<path d="M44.0183 27.2809C43.3609 27.2809 42.7826 27.1238 42.2833 26.8094C41.784 26.495 41.3929 26.0702 41.1099 25.535C40.827 24.9913 40.6855 24.3796 40.6855 23.6999C40.6855 23.0203 40.827 22.4128 41.1099 21.8776C41.3929 21.3424 41.784 20.9219 42.2833 20.616C42.7826 20.3017 43.3609 20.1445 44.0183 20.1445C44.4344 20.1445 44.8255 20.221 45.1916 20.3739C45.5578 20.5268 45.8823 20.735 46.1653 20.9983C46.4482 21.2532 46.6604 21.5505 46.8019 21.8904L45.9531 22.3364C45.7866 21.9711 45.5328 21.6737 45.1916 21.4444C44.8505 21.215 44.4594 21.1003 44.0183 21.1003C43.5773 21.1003 43.1778 21.215 42.82 21.4444C42.4705 21.6652 42.1917 21.9753 41.9837 22.3746C41.784 22.7654 41.6841 23.2114 41.6841 23.7127C41.6841 24.2054 41.784 24.6514 41.9837 25.0507C42.1917 25.4415 42.4705 25.7516 42.82 25.981C43.1778 26.2104 43.5773 26.3251 44.0183 26.3251C44.4594 26.3251 44.8463 26.2104 45.1792 25.981C45.5203 25.7516 45.7783 25.4458 45.9531 25.0635L46.8019 25.535C46.6604 25.8663 46.4482 26.1636 46.1653 26.427C45.8823 26.6905 45.5578 26.8986 45.1916 27.0515C44.8255 27.2045 44.4344 27.2809 44.0183 27.2809Z" fill="#C3C3C4"/>
<path fill-rule="evenodd" clip-rule="evenodd" d="M36.0065 17.6343L32.6113 27.1282H33.6598L34.4712 24.8088H38.6278L39.4266 27.1282H40.4752L37.08 17.6343H36.0065ZM38.2783 23.853H34.7957L36.5427 18.8309L38.2783 23.853Z" fill="#C3C3C4"/>
<path d="M33.457 2.25635V13.5881H40.4596V11.5347H35.7662V2.25635H33.457Z" fill="#1C2346"/>
<path d="M68.7246 13.5881H70.9595V5.2832H68.7246V13.5881Z" fill="#1C2346"/>
<path d="M68.7246 2.25635V4.53792H70.9595V2.25635H68.7246Z" fill="#1C2346"/>
<path fill-rule="evenodd" clip-rule="evenodd" d="M72.1465 16.63V5.28311H74.2323V6.14467C74.4734 5.85513 74.7711 5.6237 75.1261 5.45042C75.5929 5.21719 76.1244 5.10059 76.7205 5.10059C77.4951 5.10059 78.1952 5.29325 78.8211 5.67858C79.4468 6.0639 79.9435 6.58612 80.3109 7.24524C80.6784 7.89422 80.8622 8.62431 80.8622 9.43553C80.8622 10.2366 80.6784 10.9667 80.3109 11.6258C79.9534 12.2849 79.4616 12.8072 78.8359 13.1925C78.2103 13.5778 77.5001 13.7705 76.7054 13.7705C76.1491 13.7705 75.6327 13.6691 75.156 13.4663C74.8624 13.3323 74.6042 13.1603 74.3813 12.9502V16.63H72.1465ZM76.4373 11.7171C76.8544 11.7171 77.2218 11.6208 77.5399 11.4281C77.8576 11.2354 78.106 10.9667 78.2846 10.6219C78.4636 10.2772 78.5528 9.88171 78.5528 9.43553C78.5528 8.98936 78.4636 8.59896 78.2846 8.26434C78.106 7.91958 77.8576 7.65085 77.5399 7.45819C77.2218 7.25538 76.8544 7.15397 76.4373 7.15397C76.0399 7.15397 75.6823 7.25031 75.3646 7.44298C75.0567 7.63564 74.8133 7.90434 74.6346 8.24913C74.4656 8.59389 74.3813 8.98936 74.3813 9.43553C74.3813 9.88171 74.4656 10.2772 74.6346 10.6219C74.8133 10.9667 75.0567 11.2354 75.3646 11.4281C75.6823 11.6208 76.0399 11.7171 76.4373 11.7171Z" fill="#1C2346"/>
<path d="M82.5732 13.1317C83.2387 13.5575 84.0183 13.7705 84.9124 13.7705C85.5479 13.7705 86.0992 13.664 86.566 13.4511C87.0328 13.228 87.3956 12.9238 87.6538 12.5385C87.9219 12.1531 88.0561 11.7019 88.0561 11.1847C88.0561 10.5864 87.8772 10.0845 87.5196 9.67891C87.162 9.26315 86.6456 8.95386 85.9702 8.75106L84.6739 8.35559C84.4752 8.29476 84.3064 8.22884 84.1673 8.15785C84.0383 8.08689 83.9439 8.00575 83.8844 7.91451C83.8248 7.82323 83.7949 7.72182 83.7949 7.61029C83.7949 7.39734 83.8742 7.23003 84.0334 7.10836C84.2022 6.98666 84.4305 6.92583 84.7186 6.92583C85.116 6.92583 85.4686 7.03229 85.7765 7.24524C86.0943 7.44805 86.3127 7.72182 86.4321 8.0666L88.0857 7.27567C87.8374 6.58612 87.4104 6.05376 86.8045 5.67858C86.2084 5.29325 85.5133 5.10059 84.7186 5.10059C84.1127 5.10059 83.5765 5.21212 83.1094 5.43521C82.6427 5.64815 82.2802 5.94728 82.0219 6.3326C81.7637 6.71796 81.6347 7.16918 81.6347 7.68635C81.6347 8.27448 81.8134 8.78655 82.1709 9.22259C82.5285 9.64848 83.04 9.95775 83.7055 10.1504L85.091 10.5459C85.2699 10.5966 85.4189 10.6574 85.538 10.7284C85.6571 10.7994 85.7466 10.8805 85.8061 10.9718C85.866 11.0529 85.8956 11.1543 85.8956 11.276C85.8956 11.5092 85.8111 11.6917 85.6423 11.8236C85.4735 11.9554 85.2301 12.0213 84.9124 12.0213C84.4752 12.0213 84.0781 11.8946 83.7203 11.641C83.3627 11.3875 83.0798 11.0377 82.8712 10.5915L81.2324 11.3825C81.4706 12.1126 81.9176 12.6956 82.5732 13.1317Z" fill="#1C2346"/>
<path d="M97.418 5.28311H99.5038V6.28633C99.6565 5.9828 99.87 5.73964 100.145 5.55688C100.601 5.25268 101.148 5.10059 101.783 5.10059C102.459 5.10059 103.05 5.27804 103.556 5.63294C103.858 5.83405 104.093 6.07657 104.262 6.36051C104.478 6.03921 104.734 5.78148 105.031 5.5873C105.528 5.26282 106.109 5.10059 106.774 5.10059C107.36 5.10059 107.877 5.2324 108.324 5.49606C108.781 5.75968 109.138 6.1298 109.397 6.6064C109.655 7.07286 109.784 7.62043 109.784 8.24913V13.588H107.549V8.73584C107.549 8.41136 107.49 8.13252 107.37 7.89929C107.261 7.66606 107.102 7.48354 106.894 7.3517C106.685 7.21989 106.432 7.15397 106.134 7.15397C105.846 7.15397 105.593 7.21989 105.374 7.3517C105.165 7.48354 105.001 7.66606 104.882 7.89929C104.773 8.13252 104.719 8.41136 104.719 8.73584V13.588H102.484V8.73584C102.484 8.41136 102.424 8.13252 102.305 7.89929C102.196 7.66606 102.037 7.48354 101.828 7.3517C101.62 7.21989 101.366 7.15397 101.068 7.15397C100.78 7.15397 100.527 7.21989 100.308 7.3517C100.1 7.48354 99.936 7.66606 99.8166 7.89929C99.7074 8.13252 99.6528 8.41136 99.6528 8.73584V13.588H97.418V5.28311Z" fill="#1C2346"/>
<path d="M91.8652 13.7706C91.2096 13.7706 90.6484 13.6286 90.1816 13.3447C89.7247 13.0506 89.377 12.645 89.1388 12.1278C88.9004 11.6107 88.7812 11.0074 88.7812 10.3178V5.2832H91.0161V10.1353C91.0161 10.4497 91.0756 10.7285 91.1947 10.9719C91.324 11.2051 91.5026 11.3876 91.7312 11.5195C91.9595 11.6513 92.2178 11.7172 92.5059 11.7172C92.8039 11.7172 93.0621 11.6513 93.2806 11.5195C93.5092 11.3876 93.6829 11.2051 93.802 10.9719C93.9312 10.7285 93.9957 10.4497 93.9957 10.1353V5.2832H96.2306V13.5881H94.1447V12.5774C93.9551 12.9421 93.687 13.2232 93.3401 13.4207C92.923 13.654 92.4313 13.7706 91.8652 13.7706Z" fill="#1C2346"/>
<path fill-rule="evenodd" clip-rule="evenodd" d="M63.5041 13.7705C62.6995 13.7705 61.9643 13.5829 61.2989 13.2077C60.6433 12.8325 60.117 12.3204 59.7196 11.6715C59.3324 11.0123 59.1387 10.267 59.1387 9.43553C59.1387 8.59389 59.3324 7.84859 59.7196 7.1996C60.117 6.55062 60.6433 6.03855 61.2989 5.66336C61.9643 5.28818 62.6995 5.10059 63.5041 5.10059C64.3084 5.10059 65.0386 5.28818 65.6942 5.66336C66.3495 6.03855 66.8712 6.55062 67.2584 7.1996C67.6557 7.84859 67.8544 8.59389 67.8544 9.43553C67.8544 10.267 67.6557 11.0123 67.2584 11.6715C66.8712 12.3204 66.3495 12.8325 65.6942 13.2077C65.0386 13.5829 64.3084 13.7705 63.5041 13.7705ZM63.5041 11.7171C63.9113 11.7171 64.2639 11.6208 64.5617 11.4281C64.8696 11.2354 65.1081 10.9667 65.2768 10.6219C65.4557 10.2772 65.5452 9.88171 65.5452 9.43553C65.5452 8.98936 65.4557 8.59896 65.2768 8.26434C65.1081 7.91958 64.8696 7.65085 64.5617 7.45819C64.2639 7.25538 63.9113 7.15397 63.5041 7.15397C63.0969 7.15397 62.7393 7.25538 62.4314 7.45819C62.1232 7.65085 61.8801 7.91958 61.7012 8.26434C61.5324 8.59896 61.4479 8.98936 61.4479 9.43553C61.4479 9.88171 61.5324 10.2772 61.7012 10.6219C61.8801 10.9667 62.1232 11.2354 62.4314 11.4281C62.7393 11.6208 63.0969 11.7171 63.5041 11.7171Z" fill="#1C2346"/>
<path fill-rule="evenodd" clip-rule="evenodd" d="M52.5014 16.6148C53.0376 16.8278 53.6188 16.9342 54.2445 16.9342C55.0291 16.9342 55.7195 16.772 56.3155 16.4475C56.9214 16.123 57.3981 15.6718 57.7458 15.0938C58.0932 14.5259 58.2672 13.877 58.2672 13.1469V5.28311H56.1813V6.15536C55.9359 5.86139 55.6579 5.63145 55.3471 5.46563C54.91 5.22226 54.3985 5.10059 53.8123 5.10059C53.0675 5.10059 52.4021 5.27297 51.8159 5.61773C51.23 5.96249 50.7682 6.43909 50.4304 7.04751C50.0926 7.64578 49.9238 8.3353 49.9238 9.1161C49.9238 9.89692 50.0926 10.5966 50.4304 11.2151C50.7682 11.8236 51.235 12.3052 51.831 12.6601C52.4268 13.0049 53.1021 13.1773 53.857 13.1773C54.4432 13.1773 54.9547 13.0657 55.3916 12.8427C55.6285 12.7162 55.8422 12.5556 56.0323 12.3606V13.1469C56.0323 13.5018 55.958 13.811 55.809 14.0747C55.6698 14.3384 55.4662 14.5361 55.1981 14.6679C54.9297 14.8099 54.612 14.8809 54.2445 14.8809C53.7777 14.8809 53.3754 14.7693 53.0376 14.5462C52.7001 14.3231 52.4765 14.0189 52.3672 13.6336L50.2962 14.3789C50.4652 14.8961 50.7383 15.3422 51.1159 15.7174C51.5031 16.1028 51.9649 16.4019 52.5014 16.6148ZM55.1534 10.8653C54.8751 11.0276 54.5475 11.1087 54.1699 11.1087C53.7926 11.1087 53.4547 11.0276 53.157 10.8653C52.8689 10.6929 52.6403 10.4597 52.4715 10.1656C52.3126 9.87157 52.233 9.53188 52.233 9.14652C52.233 8.75106 52.3126 8.40629 52.4715 8.11224C52.6403 7.80802 52.8689 7.57479 53.157 7.41255C53.4547 7.24017 53.7926 7.15397 54.1699 7.15397C54.5376 7.15397 54.8603 7.24017 55.1383 7.41255C55.4165 7.57479 55.635 7.80802 55.7939 8.11224C55.953 8.40629 56.0323 8.75106 56.0323 9.14652C56.0323 9.54199 55.953 9.88678 55.7939 10.1808C55.6449 10.4749 55.4314 10.7031 55.1534 10.8653Z" fill="#1C2346"/>
<path fill-rule="evenodd" clip-rule="evenodd" d="M45.0312 13.7705C44.2266 13.7705 43.4917 13.5829 42.8262 13.2077C42.1707 12.8325 41.6443 12.3204 41.247 11.6715C40.8595 11.0123 40.666 10.267 40.666 9.43553C40.666 8.59389 40.8595 7.84859 41.247 7.1996C41.6443 6.55062 42.1707 6.03855 42.8262 5.66336C43.4917 5.28818 44.2266 5.10059 45.0312 5.10059C45.8358 5.10059 46.5657 5.28818 47.2213 5.66336C47.8769 6.03855 48.3983 6.55062 48.7857 7.1996C49.1831 7.84859 49.3818 8.59389 49.3818 9.43553C49.3818 10.267 49.1831 11.0123 48.7857 11.6715C48.3983 12.3204 47.8769 12.8325 47.2213 13.2077C46.5657 13.5829 45.8358 13.7705 45.0312 13.7705ZM45.0312 11.7171C45.4384 11.7171 45.791 11.6208 46.089 11.4281C46.3969 11.2354 46.6354 10.9667 46.8042 10.6219C46.9831 10.2772 47.0723 9.88171 47.0723 9.43553C47.0723 8.98936 46.9831 8.59896 46.8042 8.26434C46.6354 7.91958 46.3969 7.65085 46.089 7.45819C45.791 7.25538 45.4384 7.15397 45.0312 7.15397C44.6239 7.15397 44.2664 7.25538 43.9585 7.45819C43.6506 7.65085 43.4072 7.91958 43.2285 8.26434C43.0598 8.59896 42.9752 8.98936 42.9752 9.43553C42.9752 9.88171 43.0598 10.2772 43.2285 10.6219C43.4072 10.9667 43.6506 11.2354 43.9585 11.4281C44.2664 11.6208 44.6239 11.7171 45.0312 11.7171Z" fill="#1C2346"/>
</g>
<defs>
<clipPath id="clip0_479_19647">
<rect width="110" height="30" fill="white"/>
</clipPath>
</defs>
</svg>
