<svg width="92" height="22" viewBox="0 0 92 22" fill="none" xmlns="http://www.w3.org/2000/svg">
<g clip-path="url(#clip0_479_19652)">
<path fill-rule="evenodd" clip-rule="evenodd" d="M5.45184 1.375V22H0V1.375H5.45184Z" fill="#F26CF9"/>
<path fill-rule="evenodd" clip-rule="evenodd" d="M8.17773 1.375H19.7629C23.5267 1.375 26.5777 4.45304 26.5777 8.25C26.5777 12.047 23.5267 15.125 19.7629 15.125H13.6296V22H8.17773V1.375ZM13.6296 9.625H19.7629C20.5157 9.625 21.1259 9.00939 21.1259 8.25C21.1259 7.49062 20.5157 6.875 19.7629 6.875H13.6296V9.625Z" fill="#F26CF9"/>
<path fill-rule="evenodd" clip-rule="evenodd" d="M47.0222 1.375V12.0313C47.0222 14.4993 49.0053 16.5 51.4518 16.5C53.8982 16.5 55.8815 14.4993 55.8815 12.0313V1.375H61.3334V12.0313C61.3334 17.5369 56.9093 22 51.4518 22C45.9944 22 41.5703 17.5369 41.5703 12.0313V1.375H47.0222Z" fill="#F26CF9"/>
<path fill-rule="evenodd" clip-rule="evenodd" d="M28.6218 11C28.6218 5.68425 32.8933 1.375 38.1625 1.375H39.5255V6.875H38.1625C35.9042 6.875 34.0736 8.72185 34.0736 11V11.6875C34.0736 17.3829 29.497 22 23.8514 22H23.1699V16.5H23.8514C26.486 16.5 28.6218 14.3454 28.6218 11.6875V11Z" fill="#F26CF9"/>
<path d="M92.0009 2.0625C92.0009 3.20159 91.0858 4.125 89.9563 4.125C88.8272 4.125 87.9121 3.20159 87.9121 2.0625C87.9121 0.923412 88.8272 0 89.9563 0C91.0858 0 92.0009 0.923412 92.0009 2.0625Z" fill="#F26CF9"/>
<path d="M67.187 22L69.7885 11.0099L71.7227 17.6216C72.8757 21.565 78.4126 21.565 79.5661 17.6216L81.4998 11.0099L84.1013 22H89.7063L85.6158 4.7187C84.643 0.609077 78.9025 0.456915 77.7169 4.50939L75.6444 11.5958L73.5714 4.50939C72.3863 0.456939 66.6453 0.609055 65.6725 4.7187L61.582 22H67.187Z" fill="#F26CF9"/>
</g>
<defs>
<clipPath id="clip0_479_19652">
<rect width="92" height="22" fill="white"/>
</clipPath>
</defs>
</svg>
