<svg width="111" height="30" viewBox="0 0 111 30" fill="none" xmlns="http://www.w3.org/2000/svg">
<g clip-path="url(#clip0_479_19645)">
<path fill-rule="evenodd" clip-rule="evenodd" d="M17.5184 6.40137C16.5264 6.40137 15.5441 6.60372 14.6276 6.99683C13.7111 7.38994 12.8783 7.9661 12.1768 8.69249C11.4753 9.41884 10.9189 10.2812 10.5392 11.2302C10.2016 12.0743 10.0097 12.9722 9.97137 13.8832C9.9626 14.0917 9.85053 14.2826 9.67064 14.3757L7.23611 15.6362C7.05621 15.7293 6.94091 15.9201 6.94969 16.1287C6.98801 17.0396 7.17992 17.9376 7.51755 18.7816C7.8972 19.7307 8.45364 20.593 9.15512 21.3193C9.85658 22.0457 10.6894 22.6219 11.6059 23.015C12.5224 23.4081 13.5047 23.6105 14.4967 23.6105C15.4888 23.6105 16.4711 23.4081 17.3876 23.015C18.3042 22.6219 19.1369 22.0457 19.8384 21.3193C20.5399 20.593 21.0963 19.7307 21.4759 18.7816C21.8136 17.9376 22.0055 17.0396 22.0438 16.1287C22.0526 15.9201 22.1646 15.7293 22.3445 15.6362L24.7791 14.3757C24.959 14.2826 25.0743 14.0917 25.0655 13.8832C25.0272 12.9722 24.8353 12.0743 24.4976 11.2302C24.118 10.2812 23.5615 9.41884 22.8601 8.69249C22.1586 7.9661 21.3258 7.38994 20.4093 6.99683C19.4928 6.60372 18.5105 6.40137 17.5184 6.40137ZM21.008 12.727C21.1558 13.0964 21.2478 13.4865 21.2812 13.8835C21.2987 14.0914 21.1819 14.2826 21.002 14.3757L18.5674 15.6362C18.3875 15.7293 18.2771 15.9204 18.2595 16.1283C18.2261 16.5254 18.1341 16.9155 17.9863 17.2849C17.7965 17.7594 17.5183 18.1906 17.1676 18.5538C16.8168 18.9169 16.4004 19.205 15.9422 19.4016C15.4839 19.5981 14.9928 19.6993 14.4967 19.6993C14.0007 19.6993 13.5096 19.5981 13.0513 19.4016C12.5931 19.205 12.1767 18.9169 11.8259 18.5538C11.4752 18.1906 11.197 17.7594 11.0071 17.2849C10.8594 16.9155 10.7674 16.5254 10.734 16.1283C10.7164 15.9204 10.8333 15.7293 11.0132 15.6362L13.4477 14.3757C13.6276 14.2826 13.7381 14.0914 13.7556 13.8835C13.7891 13.4865 13.8811 13.0964 14.0288 12.727C14.2186 12.2524 14.4969 11.8213 14.8476 11.4581C15.1984 11.0949 15.6147 10.8068 16.073 10.6103C16.5313 10.4137 17.0224 10.3125 17.5184 10.3125C18.0144 10.3125 18.5056 10.4137 18.9639 10.6103C19.4221 10.8068 19.8385 11.0949 20.1893 11.4581C20.54 11.8213 20.8182 12.2524 21.008 12.727Z" fill="#F26CF9"/>
<path fill-rule="evenodd" clip-rule="evenodd" d="M17.5178 0.143555C15.7321 0.143555 13.9639 0.507748 12.3142 1.21534C10.6645 1.92294 9.1655 2.96008 7.90284 4.26753C6.64019 5.57501 5.63861 7.1272 4.95526 8.83546C4.31389 10.4388 3.96468 12.1502 3.92418 13.8831C3.9193 14.0918 3.80652 14.2826 3.62662 14.3757L1.19208 15.6362C1.0122 15.7293 0.897618 15.9201 0.902493 16.1288C0.942988 17.8617 1.29221 19.5731 1.93357 21.1764C2.61691 22.8847 3.61851 24.4369 4.88115 25.7443C6.14382 27.0518 7.64278 28.0891 9.29255 28.7964C10.9423 29.504 12.7104 29.8684 14.4961 29.8684C16.2818 29.8684 18.05 29.504 19.6997 28.7964C21.3494 28.0891 22.8484 27.0518 24.1111 25.7443C25.3737 24.4369 26.3753 22.8847 27.0586 21.1764C27.7001 19.5731 28.0492 17.8617 28.0897 16.1288C28.0945 15.9201 28.2074 15.7293 28.3871 15.6362L30.8217 14.3757C31.0017 14.2826 31.1162 14.0918 31.1114 13.8831C31.0709 12.1502 30.7218 10.4388 30.0803 8.83546C29.397 7.1272 28.3954 5.57501 27.1327 4.26753C25.8701 2.96008 24.3711 1.92294 22.7214 1.21534C21.0716 0.50775 19.3034 0.143555 17.5178 0.143555ZM24.3111 16.1287C24.3178 15.9201 24.4303 15.7293 24.6102 15.6362L27.0447 14.3757C27.2246 14.2826 27.3396 14.0917 27.3327 13.8831C27.2932 12.6639 27.0423 11.461 26.5907 10.3322C26.0972 9.09844 25.3738 7.97741 24.4619 7.03315C23.55 6.08887 22.4674 5.33983 21.2759 4.82878C20.0844 4.31774 18.8074 4.0547 17.5178 4.0547C16.2281 4.0547 14.9511 4.31774 13.7597 4.82878C12.5682 5.33983 11.4856 6.08887 10.5737 7.03315C9.66175 7.97741 8.93837 9.09844 8.44486 10.3322C7.99333 11.461 7.74226 12.6639 7.70282 13.8831C7.69606 14.0917 7.58362 14.2826 7.40373 14.3757L4.9692 15.6362C4.78931 15.7293 4.67438 15.9201 4.68113 16.1287C4.72058 17.348 4.97164 18.5509 5.42317 19.6797C5.91669 20.9134 6.64006 22.0345 7.55198 22.9787C8.46389 23.923 9.5465 24.672 10.738 25.1831C11.9294 25.6941 13.2065 25.9572 14.4961 25.9572C15.7858 25.9572 17.0628 25.6941 18.2542 25.1831C19.4457 24.672 20.5283 23.923 21.4402 22.9787C22.3521 22.0345 23.0755 20.9134 23.5691 19.6797C24.0206 18.5509 24.2716 17.348 24.3111 16.1287Z" fill="#F26CF9"/>
<path d="M71.3684 4.77513C70.9658 4.77513 70.6255 4.63063 70.3472 4.34164C70.0688 4.05265 69.9297 3.70174 69.9297 3.28889C69.9297 2.86573 70.0688 2.51224 70.3472 2.22841C70.6255 1.93942 70.9658 1.79492 71.3684 1.79492C71.7711 1.79492 72.109 1.93942 72.3823 2.22841C72.6606 2.51224 72.7998 2.86573 72.7998 3.28889C72.7998 3.70174 72.6606 4.05265 72.3823 4.34164C72.109 4.63063 71.7711 4.77513 71.3684 4.77513Z" fill="#1C2346"/>
<path d="M70.1816 14.0562V5.72705H72.5375V14.0562H70.1816Z" fill="#1C2346"/>
<path fill-rule="evenodd" clip-rule="evenodd" d="M73.8672 16.5071V5.72721H76.1035V6.55549H76.1327C76.2737 6.41135 76.4256 6.27976 76.588 6.1607C77.115 5.77882 77.7212 5.58789 78.4071 5.58789C79.0086 5.58789 79.5824 5.75044 80.1292 6.07554C80.6808 6.40067 81.128 6.88318 81.471 7.52308C81.814 8.16299 81.9804 8.9603 81.9706 9.91499C81.9754 10.6375 81.8786 11.2671 81.6798 11.8038C81.481 12.3353 81.2125 12.7765 80.8746 13.1274C80.5366 13.4784 80.1589 13.7416 79.7415 13.917C79.324 14.0925 78.9015 14.1802 78.4742 14.1802C77.7983 14.1802 77.1918 13.9841 76.6551 13.5919C76.5202 13.4919 76.3922 13.3835 76.271 13.2668H76.2228V15.1093L73.8672 16.5071ZM77.9226 12.1366C78.2704 12.1315 78.576 12.036 78.8395 11.8502C79.1029 11.6644 79.3091 11.4012 79.4581 11.0606C79.6073 10.72 79.6794 10.3227 79.6744 9.86856C79.6794 9.40411 79.6049 9.00673 79.4507 8.67646C79.3017 8.34104 79.0905 8.0856 78.8172 7.91014C78.5436 7.72951 78.2306 7.64179 77.8778 7.64694C77.5449 7.64179 77.2467 7.72692 76.9832 7.90238C76.7198 8.07784 76.5112 8.3333 76.3569 8.66873C76.2029 8.999 76.126 9.39894 76.126 9.86856C76.126 10.3227 76.2029 10.72 76.3569 11.0606C76.5159 11.4012 76.7298 11.6644 76.9981 11.8502C77.2666 12.036 77.5746 12.1315 77.9226 12.1366Z" fill="#1C2346"/>
<path d="M85.6103 14.1804C85.1332 14.1804 84.676 14.0952 84.2386 13.9249C83.8063 13.7546 83.4236 13.5146 83.0907 13.205C82.7577 12.8902 82.5067 12.5238 82.3379 12.1058L84.1867 11.262C84.3107 11.5046 84.4971 11.7342 84.7457 11.951C84.9941 12.1677 85.2875 12.2761 85.6254 12.2761C85.8043 12.2761 85.9607 12.2451 86.0951 12.1832C86.2292 12.1161 86.3337 12.031 86.4082 11.9278C86.4877 11.8246 86.5274 11.7136 86.5274 11.5949C86.5274 11.4453 86.4702 11.3162 86.3559 11.2079C86.2417 11.0995 86.0951 11.0066 85.9162 10.9292C85.7373 10.8518 85.5483 10.7847 85.3495 10.7279C85.1557 10.6712 84.9768 10.6196 84.8128 10.5731C84.435 10.4544 84.0772 10.2919 83.7393 10.0854C83.4063 9.87386 83.1355 9.60552 82.9266 9.28039C82.718 8.95529 82.6136 8.5605 82.6136 8.09605C82.6136 7.60581 82.7355 7.17488 82.9788 6.80332C83.2274 6.42662 83.5627 6.13245 83.9852 5.92088C84.4128 5.70929 84.8997 5.60352 85.4465 5.60352C86.1272 5.60352 86.7387 5.76607 87.2802 6.09117C87.827 6.4163 88.2145 6.84719 88.4433 7.38389L86.6319 8.19667C86.5372 8.03153 86.3981 7.87157 86.2144 7.71675C86.0355 7.56194 85.8067 7.48452 85.5284 7.48452C85.2949 7.48452 85.1011 7.54644 84.9469 7.6703C84.7929 7.79415 84.7157 7.94897 84.7157 8.13475C84.7157 8.32052 84.7929 8.47019 84.9469 8.58373C85.1011 8.69726 85.2973 8.7953 85.5358 8.87786C85.7744 8.96043 86.023 9.04044 86.2815 9.11784C86.4802 9.17462 86.7114 9.25719 86.9746 9.36554C87.2381 9.46875 87.4941 9.61066 87.7425 9.7913C87.9959 9.9719 88.2047 10.2041 88.3688 10.488C88.5376 10.7718 88.6222 11.1201 88.6222 11.533C88.6222 12.0542 88.483 12.5161 88.2047 12.9186C87.9315 13.3159 87.5662 13.6256 87.109 13.8475C86.6565 14.0694 86.1571 14.1804 85.6103 14.1804Z" fill="#1C2346"/>
<path d="M98.1992 14.0565V5.72737H100.443V6.78786H100.484C100.66 6.53445 100.857 6.3203 101.077 6.14536C101.524 5.78412 102.053 5.60352 102.665 5.60352C103.172 5.60352 103.601 5.73252 103.954 5.99054C104.227 6.1829 104.449 6.44093 104.62 6.76463H104.662C104.916 6.42843 105.225 6.16526 105.587 5.97508C106.059 5.72737 106.574 5.60352 107.13 5.60352C107.662 5.60352 108.099 5.70155 108.442 5.89765C108.785 6.08861 109.053 6.34146 109.247 6.65627C109.441 6.9659 109.578 7.3065 109.657 7.67806C109.737 8.04444 109.777 8.40053 109.777 8.74628V14.0565H107.406V9.04818C107.406 8.59405 107.314 8.24572 107.13 8.00316C106.951 7.75545 106.688 7.6316 106.34 7.6316C106.111 7.6316 105.907 7.68579 105.729 7.79415C105.555 7.89736 105.415 8.05476 105.311 8.26636C105.212 8.47793 105.162 8.73854 105.162 9.04818V14.0565H102.806V9.04818C102.806 8.59405 102.715 8.24572 102.531 8.00316C102.347 7.75545 102.081 7.6316 101.733 7.6316C101.395 7.6316 101.114 7.75286 100.89 7.99542C100.667 8.23281 100.555 8.58887 100.555 9.06364V14.0565H98.1992Z" fill="#1C2346"/>
<path d="M90.929 13.8162C91.3814 14.0588 91.8832 14.18 92.4351 14.18C93.086 14.18 93.6625 14.0149 94.1646 13.6846C94.4185 13.5149 94.6496 13.3213 94.8577 13.1041H94.9176C94.9886 13.2734 95.0928 13.423 95.2306 13.553C95.5039 13.8111 95.9362 14.02 96.5276 14.18L97.3625 12.1365C97.1041 12.0384 96.9326 11.9223 96.8483 11.7881C96.7637 11.654 96.7216 11.4372 96.7216 11.1379V5.72705H94.3657V10.6347C94.3657 10.9392 94.3085 11.2024 94.1943 11.4243C94.085 11.641 93.9308 11.8088 93.732 11.9274C93.5382 12.0462 93.3121 12.1055 93.0537 12.1055C92.7059 12.1055 92.4101 11.9816 92.1665 11.7339C91.928 11.4811 91.8087 11.1147 91.8087 10.6347V5.72705H89.4531V10.9598C89.4531 11.6617 89.5849 12.2526 89.8481 12.7325C90.1166 13.2073 90.4768 13.5685 90.929 13.8162Z" fill="#1C2346"/>
<path fill-rule="evenodd" clip-rule="evenodd" d="M65.0825 14.1804C64.312 14.1804 63.6088 13.9971 62.9726 13.6307C62.3415 13.2643 61.8371 12.7586 61.4594 12.1135C61.0867 11.4685 60.9004 10.7253 60.9004 9.88419C60.9004 9.043 61.0867 8.29988 61.4594 7.65483C61.8371 7.00975 62.3415 6.5066 62.9726 6.14536C63.6088 5.78412 64.312 5.60352 65.0825 5.60352C65.8676 5.60352 66.5759 5.78412 67.207 6.14536C67.8383 6.5066 68.3377 7.00975 68.7054 7.65483C69.0783 8.29988 69.2646 9.043 69.2646 9.88419C69.2646 10.7253 69.0783 11.4685 68.7054 12.1135C68.3377 12.7586 67.8357 13.2643 67.1995 13.6307C66.5684 13.9971 65.8626 14.1804 65.0825 14.1804ZM65.0825 12.0903C65.4502 12.0903 65.7807 11.9974 66.0738 11.8116C66.3673 11.6259 66.5981 11.3678 66.7672 11.0376C66.9361 10.7073 67.0206 10.3228 67.0206 9.88419C67.0206 9.46102 66.9387 9.08429 66.7747 8.75401C66.6106 8.42374 66.3845 8.16571 66.0964 7.97993C65.808 7.789 65.4751 7.69352 65.0974 7.69352C64.7247 7.69352 64.3891 7.78641 64.0909 7.97219C63.7978 8.15283 63.5666 8.40827 63.3975 8.73854C63.2287 9.06882 63.1441 9.4507 63.1441 9.88419C63.1441 10.3228 63.2287 10.7073 63.3975 11.0376C63.5717 11.3678 63.8052 11.6259 64.0983 11.8116C64.3915 11.9974 64.7196 12.0903 65.0825 12.0903Z" fill="#1C2346"/>
<path fill-rule="evenodd" clip-rule="evenodd" d="M55.7606 17.4314C55.0945 17.4314 54.4833 17.3463 53.9267 17.176C53.3751 17.0108 52.9401 16.8405 52.622 16.6651L53.3973 14.7453C53.6757 14.9208 53.9988 15.0705 54.3664 15.1943C54.7391 15.3233 55.1168 15.3878 55.4995 15.3878C55.8277 15.3878 56.168 15.3311 56.5208 15.2176C56.8739 15.104 57.1744 14.9234 57.4228 14.6757C57.6714 14.4332 57.7957 14.1132 57.7957 13.7158V12.9108H57.76C57.6142 13.0602 57.457 13.197 57.2887 13.321C56.757 13.7081 56.1505 13.9016 55.4698 13.9016C55.0473 13.9016 54.6275 13.819 54.21 13.6539C53.7925 13.4836 53.4122 13.2281 53.0692 12.8875C52.7312 12.5418 52.4606 12.1109 52.2568 11.5948C52.053 11.0788 51.9512 10.4724 51.9512 9.77575C51.9512 8.84685 52.1251 8.07535 52.4728 7.46124C52.8259 6.84197 53.2781 6.37752 53.8297 6.06789C54.3812 5.75311 54.9554 5.5957 55.5517 5.5957C56.2425 5.5957 56.8463 5.7789 57.3632 6.14531C57.5291 6.26179 57.6834 6.39081 57.8257 6.53234H57.8702V5.71956H60.0098V13.5765C60.0098 14.2112 59.9054 14.7686 59.6968 15.2485C59.4879 15.7284 59.1921 16.131 58.8096 16.4561C58.4319 16.7812 57.9845 17.0237 57.4676 17.1837C56.9507 17.3488 56.3817 17.4314 55.7606 17.4314ZM56.0511 11.9122C56.409 11.9122 56.7246 11.8193 56.9979 11.6335C57.2715 11.4478 57.4875 11.1897 57.6465 10.8595C57.8056 10.524 57.8851 10.137 57.8851 9.69833C57.8851 9.25452 57.8082 8.87523 57.6539 8.56045C57.4999 8.24049 57.2887 7.99535 57.0204 7.82506C56.7519 7.65475 56.4413 7.56962 56.0885 7.56962C55.7357 7.56962 55.42 7.65734 55.1417 7.8328C54.8634 8.00311 54.6447 8.24823 54.4857 8.56818C54.3317 8.88813 54.2545 9.26484 54.2545 9.69833C54.2545 10.1318 54.3317 10.5163 54.4857 10.8517C54.6397 11.182 54.8509 11.4426 55.1194 11.6335C55.3877 11.8193 55.6983 11.9122 56.0511 11.9122Z" fill="#1C2346"/>
<path fill-rule="evenodd" clip-rule="evenodd" d="M47.1704 14.1804C46.3999 14.1804 45.6967 13.9971 45.0605 13.6307C44.4294 13.2643 43.925 12.7586 43.5473 12.1135C43.1746 11.4685 42.9883 10.7253 42.9883 9.88419C42.9883 9.043 43.1746 8.29988 43.5473 7.65483C43.925 7.00975 44.4294 6.5066 45.0605 6.14536C45.6967 5.78412 46.3999 5.60352 47.1704 5.60352C47.9555 5.60352 48.6638 5.78412 49.2949 6.14536C49.9262 6.5066 50.4256 7.00975 50.7932 7.65483C51.1662 8.29988 51.3525 9.043 51.3525 9.88419C51.3525 10.7253 51.1662 11.4685 50.7932 12.1135C50.4256 12.7586 49.9236 13.2643 49.2874 13.6307C48.6563 13.9971 47.9505 14.1804 47.1704 14.1804ZM47.1704 12.0903C47.538 12.0903 47.8686 11.9974 48.1617 11.8116C48.4551 11.6259 48.686 11.3678 48.8551 11.0376C49.024 10.7073 49.1085 10.3228 49.1085 9.88419C49.1085 9.46102 49.0266 9.08429 48.8625 8.75401C48.6985 8.42374 48.4724 8.16571 48.1843 7.97993C47.8959 7.789 47.563 7.69352 47.1852 7.69352C46.8126 7.69352 46.477 7.78641 46.1788 7.97219C45.8857 8.15283 45.6545 8.40827 45.4854 8.73854C45.3166 9.06882 45.232 9.4507 45.232 9.88419C45.232 10.3228 45.3166 10.7073 45.4854 11.0376C45.6596 11.3678 45.8931 11.6259 46.1862 11.8116C46.4794 11.9974 46.8075 12.0903 47.1704 12.0903Z" fill="#1C2346"/>
<path d="M36.6211 14.0565V2.64648H39.0663V11.7961H43.0247V14.0565H36.6211Z" fill="#1C2346"/>
<path fill-rule="evenodd" clip-rule="evenodd" d="M73.8702 18.1566V20.4451H73.8032C73.7059 20.3572 73.6041 20.2747 73.4973 20.1974C72.9757 19.8155 72.3742 19.6246 71.6933 19.6246C71.0919 19.6246 70.5154 19.7871 69.9638 20.1122C69.4122 20.4374 68.9648 20.9199 68.622 21.5598C68.2791 22.1997 68.115 22.997 68.1298 23.9517C68.12 24.6742 68.2144 25.3038 68.4132 25.8404C68.612 26.372 68.8805 26.8132 69.2184 27.1641C69.5564 27.5151 69.9341 27.7783 70.3516 27.9536C70.769 28.1292 71.1913 28.217 71.6188 28.217C72.2947 28.217 72.9009 28.0208 73.4377 27.6286C73.7067 27.4294 73.9476 27.1972 74.1605 26.9319H74.2339C74.2898 27.0814 74.3747 27.2233 74.4889 27.3577C74.6429 27.5278 74.8467 27.6853 75.1001 27.8298C75.3586 27.9693 75.6719 28.0981 76.0395 28.217L76.867 26.1733C76.6383 26.0856 76.4745 25.9798 76.3751 25.8559C76.2757 25.7321 76.2258 25.5179 76.2258 25.2135V16.7588L73.8702 18.1566ZM73.0949 25.8869C72.8264 26.0727 72.5184 26.1682 72.1704 26.1733C71.8274 26.1682 71.5218 26.0727 71.2536 25.8869C70.9851 25.7011 70.7765 25.4379 70.6272 25.0973C70.4833 24.7567 70.4136 24.3594 70.4186 23.9053C70.4136 23.4408 70.4881 23.0434 70.6423 22.7132C70.7963 22.3777 71.0076 22.1223 71.2758 21.9468C71.5491 21.7662 71.8624 21.6785 72.2152 21.6836C72.5481 21.6785 72.8463 21.7636 73.1098 21.9391C73.3733 22.1145 73.5819 22.37 73.7359 22.7054C73.8901 23.0357 73.9696 23.4356 73.9744 23.9053C73.9696 24.3594 73.8901 24.7567 73.7359 25.0973C73.5819 25.4379 73.3682 25.7011 73.0949 25.8869Z" fill="#C3C3C4"/>
<path d="M103.113 28.0932V19.764H105.395V20.8554H105.43C105.494 20.7568 105.564 20.6639 105.641 20.5768C105.919 20.2671 106.252 20.0349 106.64 19.8801C107.027 19.7201 107.442 19.6401 107.884 19.6401C108.421 19.6401 108.883 19.7691 109.271 20.0272C109.659 20.2852 109.957 20.6387 110.166 21.0877C110.374 21.5366 110.479 22.0553 110.479 22.6436V28.0932H108.123V23.1777C108.123 22.6771 108.009 22.303 107.78 22.0553C107.551 21.8024 107.241 21.676 106.848 21.676C106.59 21.676 106.356 21.7353 106.147 21.854C105.939 21.9675 105.772 22.1378 105.648 22.3649C105.529 22.5868 105.469 22.8655 105.469 23.2009V28.0932H103.113Z" fill="#C3C3C4"/>
<path fill-rule="evenodd" clip-rule="evenodd" d="M98.2722 28.2171C97.5017 28.2171 96.7985 28.0338 96.1624 27.6674C95.5312 27.301 95.0268 26.7952 94.6491 26.1502C94.2765 25.5051 94.0898 24.762 94.0898 23.9208C94.0898 23.0797 94.2765 22.3365 94.6491 21.6914C95.0268 21.0464 95.5312 20.5432 96.1624 20.182C96.7985 19.8207 97.5017 19.6401 98.2722 19.6401C99.0573 19.6401 99.7656 19.8207 100.397 20.182C101.028 20.5432 101.527 21.0464 101.895 21.6914C102.268 22.3365 102.454 23.0797 102.454 23.9208C102.454 24.762 102.268 25.5051 101.895 26.1502C101.527 26.7952 101.025 27.301 100.389 27.6674C99.7582 28.0338 99.0523 28.2171 98.2722 28.2171ZM98.2722 26.1269C98.6399 26.1269 98.9704 26.034 99.2636 25.8483C99.5567 25.6625 99.7878 25.4045 99.957 25.0742C100.126 24.7439 100.21 24.3595 100.21 23.9208C100.21 23.4976 100.128 23.1209 99.9644 22.7907C99.8003 22.4604 99.5742 22.2024 99.2861 22.0166C98.9977 21.8256 98.6648 21.7301 98.2871 21.7301C97.9144 21.7301 97.5788 21.823 97.2806 22.0088C96.9875 22.1894 96.7563 22.4449 96.5872 22.7752C96.4184 23.1054 96.3338 23.4873 96.3338 23.9208C96.3338 24.3595 96.4184 24.7439 96.5872 25.0742C96.7614 25.4045 96.9949 25.6625 97.2881 25.8483C97.5812 26.034 97.9094 26.1269 98.2722 26.1269Z" fill="#C3C3C4"/>
<path d="M91.0449 28.0929V19.7637H93.4005V28.0929H91.0449Z" fill="#C3C3C4"/>
<path d="M91.2085 18.3783C91.4868 18.6673 91.8274 18.8118 92.23 18.8118C92.6324 18.8118 92.9703 18.6673 93.2439 18.3783C93.5222 18.0893 93.6613 17.7384 93.6613 17.3255C93.6613 16.9024 93.5222 16.5489 93.2439 16.265C92.9703 15.976 92.6324 15.8315 92.23 15.8315C91.8274 15.8315 91.4868 15.976 91.2085 16.265C90.9302 16.5489 90.791 16.9024 90.791 17.3255C90.791 17.7384 90.9302 18.0893 91.2085 18.3783Z" fill="#C3C3C4"/>
<path d="M86.7172 27.3654C87.1993 27.933 87.9349 28.217 88.9238 28.217C89.227 28.217 89.5252 28.1884 89.8184 28.1317C90.1166 28.075 90.3776 27.99 90.6014 27.8763L89.8409 25.9489C89.7563 25.9953 89.6593 26.034 89.5501 26.0649C89.4407 26.0959 89.3291 26.1114 89.2146 26.1114C88.9712 26.1114 88.7648 26.034 88.5959 25.8792C88.4318 25.7192 88.3499 25.4612 88.3499 25.1051V21.792H90.2062V19.7639H88.3499V17.3643H85.9941V19.7639H84.6523V21.792H85.9941V25.167C85.9941 26.0598 86.2353 26.7926 86.7172 27.3654Z" fill="#C3C3C4"/>
<path fill-rule="evenodd" clip-rule="evenodd" d="M78.4902 27.8763C78.9026 28.1034 79.3797 28.2171 79.9215 28.2171C80.5476 28.2171 81.0994 28.088 81.5765 27.8298C81.9622 27.6234 82.2445 27.3938 82.4234 27.141H82.4597C82.5294 27.2648 82.6225 27.3887 82.7393 27.5125C82.9729 27.7602 83.3209 27.9641 83.7832 28.1241L84.0588 28.2171L84.8863 26.1734L84.7074 26.1115C84.5335 26.0547 84.4116 25.9541 84.3422 25.8096C84.2775 25.6599 84.2452 25.4432 84.2452 25.1593V22.6513C84.2452 22.352 84.2104 22.0295 84.141 21.6837C84.0763 21.3328 83.9372 21.0051 83.7235 20.7006C83.5096 20.391 83.1817 20.1381 82.7393 19.942C82.297 19.7408 81.7006 19.6401 80.9502 19.6401C80.4681 19.6401 80.0159 19.6814 79.5933 19.764C79.1759 19.8414 78.8032 19.9394 78.4753 20.0581C78.1522 20.1768 77.8911 20.2955 77.6923 20.4142L78.4753 22.2565C78.659 22.1327 78.8777 22.0243 79.1314 21.9314C79.3848 21.8334 79.6482 21.7585 79.9215 21.7069C80.1948 21.6502 80.4508 21.6218 80.6894 21.6218C80.898 21.6218 81.0843 21.6476 81.2484 21.6992C81.4125 21.7456 81.5516 21.8153 81.6659 21.9082C81.7801 22.0011 81.8646 22.1146 81.9192 22.2488C81.9789 22.3778 82.0088 22.5223 82.0088 22.6823V23.1003H80.4954C79.7996 23.1003 79.2032 23.2112 78.7062 23.4331C78.2142 23.655 77.8365 23.9595 77.5731 24.3466C77.3146 24.7336 77.1855 25.1774 77.1855 25.678C77.1855 26.1528 77.2998 26.5811 77.5285 26.9629C77.762 27.3448 78.0825 27.6493 78.4902 27.8763ZM80.7787 24.633H82.1207V25.1516C82.1207 25.4561 82.0261 25.6986 81.8373 25.8792C81.6534 26.0599 81.4347 26.1889 81.1813 26.2663C80.9279 26.3437 80.7066 26.3824 80.5179 26.3824C80.314 26.3824 80.1301 26.3489 79.9663 26.2818C79.8073 26.2095 79.6829 26.1115 79.5933 25.9876C79.504 25.8586 79.4592 25.7038 79.4592 25.5232C79.4592 25.2187 79.5711 24.9942 79.7948 24.8497C80.0233 24.7052 80.3514 24.633 80.7787 24.633Z" fill="#C3C3C4"/>
<path d="M60.2246 28.0932V19.764H62.5057V20.8554H62.5418C62.6048 20.7568 62.6748 20.6639 62.752 20.5768C63.0303 20.2671 63.3632 20.0349 63.7507 19.8801C64.1385 19.7201 64.5533 19.6401 64.9957 19.6401C65.5324 19.6401 65.9947 19.7691 66.3822 20.0272C66.77 20.2852 67.0682 20.6387 67.2768 21.0877C67.4857 21.5366 67.5901 22.0553 67.5901 22.6436V28.0932H65.2342V23.1777C65.2342 22.6771 65.12 22.303 64.8913 22.0553C64.6628 21.8024 64.3521 21.676 63.9596 21.676C63.7011 21.676 63.4676 21.7353 63.2588 21.854C63.0501 21.9675 62.8834 22.1378 62.7594 22.3649C62.6401 22.5868 62.5805 22.8655 62.5805 23.2009V28.0932H60.2246Z" fill="#C3C3C4"/>
<path d="M54.6811 28.2168C54.1293 28.2168 53.6275 28.0954 53.1751 27.8529C52.7229 27.6052 52.3627 27.2439 52.0942 26.7691C51.8307 26.2892 51.6992 25.6983 51.6992 24.9965V19.7637H54.0548V24.6713C54.0548 25.1513 54.1741 25.5177 54.4126 25.7706C54.6562 26.0183 54.9518 26.1421 55.2998 26.1421C55.5582 26.1421 55.7843 26.0828 55.9781 25.9641C56.1769 25.8454 56.3311 25.6777 56.4403 25.4609C56.5546 25.239 56.6118 24.9758 56.6118 24.6713V19.7637H58.9674V25.1745C58.9674 25.4738 59.0098 25.6906 59.0944 25.8247C59.1787 25.9589 59.3502 26.075 59.6086 26.1731L58.7737 28.2168C58.1823 28.0566 57.75 27.8477 57.4765 27.5895C57.3389 27.4596 57.2345 27.31 57.1637 27.1407H57.1038C56.8957 27.358 56.6646 27.5515 56.4107 27.7214C55.9086 28.0516 55.3321 28.2168 54.6811 28.2168Z" fill="#C3C3C4"/>
<path fill-rule="evenodd" clip-rule="evenodd" d="M46.9089 28.2171C46.1384 28.2171 45.4352 28.0338 44.7991 27.6674C44.168 27.301 43.6636 26.7952 43.2858 26.1502C42.9132 25.5051 42.7266 24.762 42.7266 23.9208C42.7266 23.0797 42.9132 22.3365 43.2858 21.6914C43.6636 21.0464 44.168 20.5432 44.7991 20.182C45.4352 19.8207 46.1384 19.6401 46.9089 19.6401C47.6941 19.6401 48.4023 19.8207 49.0334 20.182C49.6645 20.5432 50.1642 21.0464 50.5318 21.6914C50.9047 22.3365 51.0911 23.0797 51.0911 23.9208C51.0911 24.762 50.9047 25.5051 50.5318 26.1502C50.1642 26.7952 49.6621 27.301 49.026 27.6674C48.3949 28.0338 47.689 28.2171 46.9089 28.2171ZM46.9089 26.1269C47.2766 26.1269 47.6071 26.034 47.9003 25.8483C48.1934 25.6625 48.4246 25.4045 48.5937 25.0742C48.7625 24.7439 48.8471 24.3595 48.8471 23.9208C48.8471 23.4976 48.7652 23.1209 48.6011 22.7907C48.437 22.4604 48.2109 22.2024 47.9228 22.0166C47.6344 21.8256 47.3015 21.7301 46.9238 21.7301C46.5511 21.7301 46.2155 21.823 45.9174 22.0088C45.6242 22.1894 45.3931 22.4449 45.224 22.7752C45.0551 23.1054 44.9706 23.4873 44.9706 23.9208C44.9706 24.3595 45.0551 24.7439 45.224 25.0742C45.3981 25.4045 45.6316 25.6625 45.9248 25.8483C46.2179 26.034 46.5461 26.1269 46.9089 26.1269Z" fill="#C3C3C4"/>
<path d="M36.6016 28.0932V16.6831H43.0051V18.9434H39.0467V21.5675H42.3417V23.8279H39.0467V28.0932H36.6016Z" fill="#C3C3C4"/>
<path d="M31.1117 13.9048H27.3333C27.3317 14.1048 27.2185 14.2856 27.045 14.3755L24.6105 15.636C24.4369 15.7258 24.3261 15.9066 24.3125 16.1066H28.0908C28.103 15.9066 28.2141 15.7258 28.3877 15.636L30.8223 14.3755C30.9956 14.2856 31.1085 14.1048 31.1117 13.9048Z" fill="#F26CF9"/>
<path d="M0.902344 16.1066H4.6808C4.68245 15.9066 4.79555 15.7258 4.96911 15.636L7.40366 14.3755C7.57725 14.2856 7.68802 14.1048 7.70164 13.9048H3.92318C3.91123 14.1048 3.80011 14.2856 3.62655 14.3755L1.19201 15.636C1.01844 15.7258 0.905669 15.9066 0.902344 16.1066Z" fill="#F26CF9"/>
<path d="M9.97008 13.9048C9.95468 14.1047 9.84423 14.2856 9.67065 14.3755L7.23609 15.636C7.06251 15.7258 6.94906 15.9067 6.94922 16.1066H10.7326C10.7246 15.9071 10.8395 15.7259 11.0132 15.636L13.4478 14.3755C13.6214 14.2856 13.7304 14.1043 13.7535 13.9048H9.97008Z" fill="#F26CF9"/>
<path d="M21.2826 13.9048C21.2906 14.1043 21.1757 14.2856 21.002 14.3755L18.5674 15.636C18.3938 15.7259 18.2848 15.9071 18.2617 16.1066H22.0451C22.0605 15.9067 22.171 15.7258 22.3445 15.636L24.7791 14.3755C24.9527 14.2856 25.0661 14.1047 25.066 13.9048H21.2826Z" fill="#F26CF9"/>
</g>
<defs>
<clipPath id="clip0_479_19645">
<rect width="110" height="30" fill="white" transform="translate(0.666016)"/>
</clipPath>
</defs>
</svg>
