<svg width="130" height="22" viewBox="0 0 130 22" fill="none" xmlns="http://www.w3.org/2000/svg">
<g clip-path="url(#clip0_479_19646)">
<path d="M28.6777 1.90869V17.0045H37.908V14.269H31.7218V1.90869H28.6777Z" fill="#1C2346"/>
<path d="M75.1641 5.94092V17.0044H78.1097V5.94092H75.1641Z" fill="#1C2346"/>
<path d="M75.1641 1.90869V4.94812H78.1097V1.90869H75.1641Z" fill="#1C2346"/>
<path fill-rule="evenodd" clip-rule="evenodd" d="M79.6777 21.057V5.94091H82.4272V7.08865C82.745 6.70293 83.1373 6.39466 83.6053 6.16382C84.2205 5.85313 84.9209 5.69775 85.7066 5.69775C86.728 5.69775 87.6507 5.95444 88.4759 6.46775C89.3005 6.98107 89.9551 7.67676 90.4396 8.55484C90.9242 9.41938 91.1662 10.392 91.1662 11.4726C91.1662 12.5399 90.9242 13.5125 90.4396 14.3905C89.9684 15.2686 89.3202 15.9643 88.4956 16.4776C87.6704 16.9909 86.7344 17.2476 85.6869 17.2476C84.9539 17.2476 84.2732 17.1125 83.6448 16.8423C83.2578 16.6639 82.9171 16.4347 82.6234 16.1548V21.057H79.6777ZM85.3335 14.5121C85.8836 14.5121 86.3676 14.3837 86.7866 14.1271C87.2056 13.8704 87.5329 13.5125 87.7685 13.0532C88.0046 12.5939 88.1224 12.067 88.1224 11.4726C88.1224 10.8783 88.0046 10.3582 87.7685 9.9124C87.5329 9.45315 87.2056 9.09516 86.7866 8.83847C86.3676 8.56831 85.8836 8.43323 85.3335 8.43323C84.81 8.43323 84.3383 8.56155 83.9198 8.81823C83.5136 9.07492 83.1927 9.43286 82.9571 9.89216C82.7348 10.3515 82.6234 10.8783 82.6234 11.4726C82.6234 12.067 82.7348 12.5939 82.9571 13.0532C83.1927 13.5125 83.5136 13.8704 83.9198 14.1271C84.3383 14.3837 84.81 14.5121 85.3335 14.5121Z" fill="#1C2346"/>
<path d="M93.42 16.3965C94.2974 16.9639 95.3251 17.2476 96.5032 17.2476C97.3411 17.2476 98.0677 17.1057 98.6834 16.8221C99.2985 16.5249 99.7767 16.1196 100.117 15.6063C100.47 15.093 100.647 14.4918 100.647 13.8029C100.647 13.0059 100.412 12.3372 99.9403 11.7969C99.4686 11.243 98.7879 10.831 97.8977 10.5609L96.1892 10.034C95.9275 9.95294 95.7047 9.86516 95.5213 9.77061C95.3512 9.67601 95.227 9.56794 95.1481 9.44639C95.0698 9.32478 95.0303 9.1897 95.0303 9.04115C95.0303 8.75746 95.1353 8.53454 95.3448 8.37246C95.5671 8.21037 95.8683 8.1293 96.2478 8.1293C96.7718 8.1293 97.2367 8.27115 97.6423 8.55484C98.0613 8.825 98.3492 9.1897 98.5064 9.64901L100.687 8.59532C100.359 7.67676 99.7959 6.96754 98.9974 6.46775C98.2122 5.95444 97.2953 5.69775 96.2478 5.69775C95.4493 5.69775 94.7425 5.84636 94.1273 6.14353C93.5117 6.42722 93.034 6.82569 92.6934 7.33906C92.3533 7.85238 92.1827 8.45353 92.1827 9.14246C92.1827 9.92593 92.4184 10.6081 92.8901 11.189C93.3613 11.7563 94.0356 12.1683 94.9125 12.425L96.7388 12.9519C96.9749 13.0194 97.1711 13.1005 97.3283 13.195C97.4851 13.2896 97.6029 13.3976 97.6818 13.5192C97.7601 13.6273 97.7996 13.7623 97.7996 13.9245C97.7996 14.2352 97.6882 14.4783 97.4659 14.654C97.2431 14.8296 96.9222 14.9173 96.5032 14.9173C95.9275 14.9173 95.4035 14.7485 94.9322 14.4108C94.461 14.073 94.0879 13.607 93.8128 13.0126L91.6523 14.0663C91.9668 15.039 92.5559 15.8157 93.42 16.3965Z" fill="#1C2346"/>
<path d="M112.986 5.94091H115.736V7.27741C115.937 6.87305 116.218 6.5491 116.58 6.30561C117.183 5.90037 117.903 5.69775 118.741 5.69775C119.631 5.69775 120.41 5.93414 121.078 6.40698C121.475 6.67488 121.785 6.99795 122.008 7.37619C122.292 6.94818 122.63 6.60487 123.022 6.34615C123.676 5.9139 124.442 5.69775 125.319 5.69775C126.092 5.69775 126.773 5.87337 127.362 6.2246C127.964 6.57583 128.435 7.06885 128.776 7.70377C129.116 8.32516 129.286 9.05462 129.286 9.89216V17.0044H126.34V10.5406C126.34 10.1083 126.262 9.73684 126.105 9.42609C125.961 9.1154 125.751 8.87224 125.476 8.69668C125.201 8.52107 124.868 8.43323 124.475 8.43323C124.095 8.43323 123.762 8.52107 123.473 8.69668C123.199 8.87224 122.982 9.1154 122.826 9.42609C122.681 9.73684 122.609 10.1083 122.609 10.5406V17.0044H119.663V10.5406C119.663 10.1083 119.585 9.73684 119.428 9.42609C119.284 9.1154 119.074 8.87224 118.799 8.69668C118.524 8.52107 118.191 8.43323 117.798 8.43323C117.418 8.43323 117.084 8.52107 116.796 8.69668C116.521 8.87224 116.305 9.1154 116.148 9.42609C116.004 9.73684 115.932 10.1083 115.932 10.5406V17.0044H112.986V5.94091Z" fill="#1C2346"/>
<path d="M105.669 17.2476C104.805 17.2476 104.065 17.0585 103.449 16.6802C102.847 16.2885 102.389 15.7481 102.075 15.0592C101.761 14.3703 101.604 13.5665 101.604 12.6479V5.94092H104.549V12.4047C104.549 12.8235 104.628 13.195 104.785 13.5192C104.955 13.8299 105.191 14.0731 105.492 14.2487C105.793 14.4243 106.133 14.5121 106.513 14.5121C106.906 14.5121 107.246 14.4243 107.534 14.2487C107.835 14.0731 108.065 13.8299 108.222 13.5192C108.392 13.195 108.477 12.8235 108.477 12.4047V5.94092H111.423V17.0044H108.673V15.658C108.423 16.1439 108.07 16.5184 107.613 16.7815C107.063 17.0922 106.415 17.2476 105.669 17.2476Z" fill="#1C2346"/>
<path fill-rule="evenodd" clip-rule="evenodd" d="M68.2837 17.2476C67.2229 17.2476 66.2543 16.9977 65.3769 16.4978C64.5128 15.998 63.8193 15.3159 63.2953 14.4513C62.7846 13.5733 62.5293 12.5803 62.5293 11.4726C62.5293 10.3515 62.7846 9.35855 63.2953 8.49401C63.8193 7.62946 64.5128 6.9473 65.3769 6.44746C66.2543 5.94767 67.2229 5.69775 68.2837 5.69775C69.3439 5.69775 70.3066 5.94767 71.1707 6.44746C72.0348 6.9473 72.7219 7.62946 73.2326 8.49401C73.756 9.35855 74.0183 10.3515 74.0183 11.4726C74.0183 12.5803 73.756 13.5733 73.2326 14.4513C72.7219 15.3159 72.0348 15.998 71.1707 16.4978C70.3066 16.9977 69.3439 17.2476 68.2837 17.2476ZM68.2837 14.5121C68.8204 14.5121 69.2853 14.3837 69.6781 14.1271C70.0838 13.8704 70.3978 13.5125 70.6206 13.0532C70.8562 12.5939 70.974 12.067 70.974 11.4726C70.974 10.8783 70.8562 10.3582 70.6206 9.9124C70.3978 9.45315 70.0838 9.09516 69.6781 8.83847C69.2853 8.56831 68.8204 8.43323 68.2837 8.43323C67.7469 8.43323 67.2756 8.56831 66.8695 8.83847C66.4638 9.09516 66.1429 9.45315 65.9073 9.9124C65.6845 10.3582 65.5736 10.8783 65.5736 11.4726C65.5736 12.067 65.6845 12.5939 65.9073 13.0532C66.1429 13.5125 66.4638 13.8704 66.8695 14.1271C67.2756 14.3837 67.7469 14.5121 68.2837 14.5121Z" fill="#1C2346"/>
<path fill-rule="evenodd" clip-rule="evenodd" d="M53.7822 21.0368C54.489 21.3204 55.255 21.4622 56.0802 21.4622C57.1143 21.4622 58.0242 21.2461 58.81 20.8138C59.6085 20.3815 60.237 19.7804 60.6949 19.0104C61.1533 18.254 61.3825 17.3894 61.3825 16.4168V5.94091H58.633V7.10295C58.3094 6.71129 57.9427 6.405 57.5333 6.18406C56.957 5.85984 56.2827 5.69775 55.5103 5.69775C54.5284 5.69775 53.6516 5.92738 52.8789 6.38668C52.1064 6.84599 51.4976 7.48091 51.0525 8.29139C50.6073 9.08839 50.3848 10.007 50.3848 11.0472C50.3848 12.0873 50.6073 13.0194 51.0525 13.8434C51.4976 14.654 52.1129 15.2956 52.8985 15.7684C53.6841 16.2277 54.5743 16.4573 55.5695 16.4573C56.3419 16.4573 57.0162 16.3087 57.5919 16.0116C57.9043 15.8431 58.1857 15.629 58.4368 15.3693V16.4168C58.4368 16.8896 58.3382 17.3016 58.142 17.6528C57.9587 18.0041 57.6905 18.2675 57.3366 18.4431C56.9832 18.6322 56.5642 18.7268 56.0802 18.7268C55.4645 18.7268 54.9346 18.5781 54.489 18.281C54.0439 17.9838 53.7496 17.5785 53.6055 17.0652L50.8757 18.0581C51.0983 18.7471 51.4583 19.3414 51.9558 19.8412C52.4665 20.3545 53.0753 20.7531 53.7822 21.0368ZM57.2779 13.3774C56.9112 13.5935 56.4794 13.7016 55.9816 13.7016C55.4842 13.7016 55.0391 13.5935 54.6462 13.3774C54.2667 13.1477 53.9655 12.837 53.7427 12.4453C53.5335 12.0536 53.4287 11.601 53.4287 11.0877C53.4287 10.5609 53.5335 10.1015 53.7427 9.70978C53.9655 9.30454 54.2667 8.99385 54.6462 8.7777C55.0391 8.54807 55.4842 8.43323 55.9816 8.43323C56.4661 8.43323 56.8915 8.54807 57.2582 8.7777C57.625 8.99385 57.9128 9.30454 58.1223 9.70978C58.3318 10.1015 58.4368 10.5609 58.4368 11.0877C58.4368 11.6145 58.3318 12.0738 58.1223 12.4656C57.9261 12.8573 57.6447 13.1613 57.2779 13.3774Z" fill="#1C2346"/>
<path fill-rule="evenodd" clip-rule="evenodd" d="M43.9358 17.2476C42.8753 17.2476 41.9064 16.9977 41.0292 16.4978C40.1651 15.998 39.4713 15.3159 38.9475 14.4513C38.4369 13.5733 38.1816 12.5803 38.1816 11.4726C38.1816 10.3515 38.4369 9.35855 38.9475 8.49401C39.4713 7.62946 40.1651 6.9473 41.0292 6.44746C41.9064 5.94767 42.8753 5.69775 43.9358 5.69775C44.9962 5.69775 45.9585 5.94767 46.8227 6.44746C47.6868 6.9473 48.3741 7.62946 48.8847 8.49401C49.4084 9.35855 49.6703 10.3515 49.6703 11.4726C49.6703 12.5803 49.4084 13.5733 48.8847 14.4513C48.3741 15.3159 47.6868 15.998 46.8227 16.4978C45.9585 16.9977 44.9962 17.2476 43.9358 17.2476ZM43.9358 14.5121C44.4726 14.5121 44.9373 14.3837 45.3301 14.1271C45.736 13.8704 46.0502 13.5125 46.2728 13.0532C46.5084 12.5939 46.6263 12.067 46.6263 11.4726C46.6263 10.8783 46.5084 10.3582 46.2728 9.9124C46.0502 9.45315 45.736 9.09516 45.3301 8.83847C44.9373 8.56831 44.4726 8.43323 43.9358 8.43323C43.399 8.43323 42.9277 8.56831 42.5218 8.83847C42.1159 9.09516 41.7951 9.45315 41.5595 9.9124C41.3369 10.3582 41.2256 10.8783 41.2256 11.4726C41.2256 12.067 41.3369 12.5939 41.5595 13.0532C41.7951 13.5125 42.1159 13.8704 42.5218 14.1271C42.9277 14.3837 43.399 14.5121 43.9358 14.5121Z" fill="#1C2346"/>
<path d="M19.3827 6.87114C18.1903 4.75259 15.2095 4.75259 14.0171 6.87114L12.2461 10.0178H15.7951C17.9015 10.0178 19.4922 11.5449 19.8938 13.4028L20.3295 12.6286C21.0391 11.3678 21.0391 9.81435 20.3295 8.55348L19.3827 6.87114Z" fill="#5562A2"/>
<path d="M13.2319 19.6248C14.5827 18.3365 15.0657 16.1733 14.0182 14.312L12.2324 11.1392L15.7954 11.1392C18.1801 11.1392 19.6705 13.7874 18.4782 15.9059L17.3145 17.9735C16.7395 18.9951 15.6769 19.6245 14.527 19.6247L13.2319 19.6248Z" fill="#D3DAF9"/>
<path d="M4.61719 16.8222C6.38515 17.3909 8.46626 16.7407 9.51825 14.8715L11.2946 11.7153L13.0716 14.8727C14.2642 16.9915 12.7731 19.6401 10.388 19.6394L8.06023 19.6388C6.91037 19.6385 5.84799 19.009 5.27308 17.9875L4.61719 16.8222Z" fill="#D3DAF9"/>
<path d="M2.69449 7.7793L2.25878 8.55348C1.54916 9.8143 1.54916 11.3677 2.25878 12.6285L3.20564 14.3109C4.39799 16.4295 7.37884 16.4295 8.57119 14.3109L10.3476 11.1546H6.79109C4.68835 11.1546 3.09952 9.6328 2.69449 7.7793Z" fill="#F26CF9"/>
<path d="M4.08276 5.31423C3.99897 5.46885 3.9293 5.62613 3.87305 5.78486C3.92946 5.62569 3.99936 5.46801 4.08347 5.31299L4.08276 5.31423Z" fill="#F26CF9"/>
<path d="M9.35823 1.54541C8.00655 2.8336 7.52307 4.99758 8.5709 6.8593L10.3571 10.033H6.79187C4.40719 10.033 2.91675 7.38488 4.1091 5.26629L5.27373 3.19699C5.84863 2.17548 6.91101 1.54608 8.06087 1.54577L9.35823 1.54541Z" fill="#F26CF9"/>
<path d="M11.2975 9.46195L9.51731 6.29896C8.32486 4.18025 9.81561 1.5319 12.2005 1.53223L14.5276 1.53255C15.6776 1.5327 16.7402 2.16212 17.3152 3.18377L17.9782 4.3618C16.2089 3.78967 14.1244 4.43926 13.0712 6.31056L11.2975 9.46195Z" fill="#5562A2"/>
<path d="M8.06014 1.54564L9.35734 1.54541C8.00577 2.83361 7.52228 4.99752 8.57006 6.85925L10.3476 10.0176H10.3461V10.03H9.15301L7.66893 7.39308C6.55356 5.41129 6.83224 3.15882 7.97293 1.54687C8.00193 1.54606 8.03098 1.54565 8.06014 1.54564Z" fill="black" fill-opacity="0.22"/>
<path d="M2.69472 7.7793C2.89723 8.70605 3.39572 9.54991 4.10639 10.1621C4.78092 10.7431 5.64663 11.1154 6.63192 11.1517C6.68474 11.1537 6.73789 11.1547 6.79135 11.1547H10.3391L9.73831 12.2222H6.79135C4.5715 12.2222 2.81563 10.8618 2.01953 9.05552C2.08753 8.88408 2.16737 8.71628 2.25907 8.55337L2.69472 7.7793Z" fill="black" fill-opacity="0.22"/>
<path d="M4.61719 16.8221C6.31175 17.3672 8.29403 16.7925 9.38205 15.0979L9.38237 15.0974C9.42939 15.0242 9.47475 14.9488 9.5183 14.8714L11.2946 11.7153C11.4559 12.002 11.6171 12.2888 11.7782 12.5755C11.8172 12.6449 11.8561 12.7142 11.895 12.7835L10.4195 15.4052C9.30044 17.3936 7.24977 18.2714 5.31276 18.0561C5.29929 18.0335 5.28606 18.0106 5.27307 17.9875L4.61719 16.8221Z" fill="black" fill-opacity="0.22"/>
<path d="M14.6161 19.6234C14.5865 19.6242 14.5567 19.6247 14.5269 19.6247L13.2318 19.6248C14.5826 18.3365 15.0656 16.1732 14.0181 14.3119L12.2324 11.1392L13.434 11.1392L14.9194 13.7783C16.0345 15.7596 15.7561 18.0115 14.6161 19.6234Z" fill="black" fill-opacity="0.22"/>
<path d="M20.57 12.1239C20.5018 12.2962 20.4217 12.4648 20.3295 12.6285L19.8938 13.4027C19.4922 11.5448 17.9015 10.0177 15.7951 10.0177H12.2461L12.8469 8.9502H15.7951C18.0178 8.9502 19.7754 10.3141 20.57 12.1239Z" fill="black" fill-opacity="0.22"/>
<path d="M17.2828 3.12617C17.294 3.1451 17.3049 3.16416 17.3158 3.18338L17.9788 4.36141C16.2095 3.78928 14.1249 4.43887 13.0717 6.31018L11.2981 9.46163L10.6973 8.39413L12.1705 5.77646C13.2906 3.78617 15.3442 2.90854 17.2828 3.12617Z" fill="black" fill-opacity="0.22"/>
</g>
<defs>
<clipPath id="clip0_479_19646">
<rect width="129" height="22" fill="white" transform="translate(0.333984)"/>
</clipPath>
</defs>
</svg>
