<svg width="24" height="24" viewBox="0 0 24 24" fill="none" xmlns="http://www.w3.org/2000/svg">
<path fill-rule="evenodd" clip-rule="evenodd" d="M4.20134 13.5303L9 24.0001H4H1V23.4632C1 21.8381 1.33009 20.2299 1.97026 18.7361L4.20134 13.5303ZM19.7987 13.5303L15 24.0001H20H23L23 23.4632C23 21.8381 22.6699 20.2299 22.0297 18.7361L19.7987 13.5303Z" fill="#37437D"/>
<path fill-rule="evenodd" clip-rule="evenodd" d="M9.37617 22.5444C9.88827 21.6233 10.8714 21 12 21C13.1287 21 14.1117 21.6233 14.6238 22.5444L22.0297 5.26394C22.6699 3.77022 23 2.16203 23 0.536908V0H15C15 1.65686 13.6569 3 12 3C10.3431 3 9 1.65685 9 0H1V0.536908C1 2.16203 1.33009 3.77022 1.97026 5.26394L9.37617 22.5444Z" fill="#F26CF9"/>
</svg>
